<svg width="150" height="60" viewBox="0 0 150 60" fill="none" xmlns="http://www.w3.org/2000/svg">
<path fill-rule="evenodd" clip-rule="evenodd" d="M84.6009 26.9284C81.7682 26.9284 80.1661 28.5573 79.7651 31.8223L79.4436 35.1637C79.4725 35.7381 79.2809 36.3018 78.9075 36.7396C78.5344 37.1772 78.0077 37.4552 77.4357 37.5172C77.3706 37.5074 77.3037 37.513 77.2407 37.5335C77.178 37.5541 77.1205 37.5889 77.0735 37.6353C77.0264 37.6819 76.9909 37.7387 76.97 37.8014C76.9487 37.8641 76.9425 37.931 76.9515 37.9965V39.3352C76.9515 39.6257 77.1125 39.7912 77.4357 39.7912C80.1372 39.7912 81.6333 38.2135 81.9298 35.031L82.2503 32.0885C82.2266 31.3329 82.4314 30.5875 82.8383 29.95C83.0912 29.7159 83.3918 29.54 83.7196 29.4337C84.0478 29.3278 84.3947 29.2944 84.7364 29.3362H86.875V39.2014C86.8655 39.2634 86.8704 39.3268 86.8903 39.3864C86.9098 39.446 86.9432 39.5003 86.9875 39.5446C87.0321 39.5888 87.0864 39.6219 87.146 39.6414C87.2059 39.6606 87.2693 39.6654 87.3313 39.6557H88.8807C88.9421 39.6626 89.0044 39.656 89.0626 39.6358C89.1208 39.6153 89.1737 39.5822 89.2173 39.5383C89.2608 39.4947 89.2939 39.4414 89.3141 39.3833C89.334 39.3247 89.3406 39.2627 89.3333 39.2014V27.4088C89.3333 27.09 89.1723 26.9246 88.8807 26.9246L84.6009 26.9284Z" fill="white"/>
<path fill-rule="evenodd" clip-rule="evenodd" d="M67.1155 34.3075V27.4088C67.1256 27.3429 67.12 27.2754 67.0991 27.2123C67.0786 27.1489 67.043 27.0914 66.996 27.0441C66.9486 26.997 66.8912 26.9615 66.8278 26.9409C66.7647 26.92 66.6971 26.9145 66.6313 26.9246H65.0296C64.9655 26.9176 64.9007 26.9256 64.8401 26.9479C64.7798 26.9702 64.7251 27.0064 64.6809 27.0535C64.637 27.1001 64.6042 27.1566 64.5854 27.2182C64.5666 27.2799 64.5624 27.345 64.5732 27.4088V35.1094C64.5732 38.2679 66.0697 39.8696 69.0673 39.8696C70.5945 39.8452 72.0627 39.2774 73.2095 38.2689L73.476 39.3913C73.5168 39.4644 73.5746 39.5268 73.6446 39.5731C73.7143 39.6191 73.7944 39.648 73.878 39.6567H75.0021C75.3198 39.6567 75.4797 39.524 75.4797 39.2558V27.4088C75.4797 27.09 75.2937 26.9246 74.9471 26.9246H73.4255C73.3596 26.9145 73.2924 26.92 73.229 26.9409C73.1656 26.9615 73.1081 26.997 73.0611 27.0441C73.0137 27.0914 72.9786 27.1489 72.9577 27.2123C72.9368 27.2754 72.9312 27.3429 72.9413 27.4088V35.6991C72.5281 36.2262 71.9997 36.6515 71.3967 36.9424C70.7937 37.2336 70.1318 37.3827 69.4623 37.3789C67.8857 37.3789 67.1117 36.3345 67.1117 34.3026L67.1155 34.3075Z" fill="white"/>
<path fill-rule="evenodd" clip-rule="evenodd" d="M62.7022 33.9082C62.7022 29.9771 60.5636 28.0006 56.2598 28.0006H53.051V24.1262H60.4825C60.804 24.1262 60.9385 23.9395 60.9667 23.5908V22.1728C60.9416 21.8232 60.8057 21.6372 60.4825 21.6372H50.9115C50.59 21.6372 50.4272 21.8232 50.4272 22.1728V34.3113C50.4272 37.9219 52.1396 39.7351 55.5343 39.7351H55.9905C60.4553 39.7351 62.6994 37.7843 62.6994 33.9075L62.7022 33.9082ZM56.3399 30.4031C58.8 30.4031 60.03 31.5781 60.03 33.9082C60.03 36.1805 58.8 37.3039 56.3399 37.3311H55.5372C53.88 37.3039 53.0519 36.3947 53.0519 34.5746V30.4052L56.3399 30.4031Z" fill="white"/>
<path fill-rule="evenodd" clip-rule="evenodd" d="M126.474 32.0352H120.674V27.4088C120.684 27.343 120.678 27.2754 120.657 27.212C120.637 27.1489 120.601 27.0911 120.554 27.0441C120.507 26.997 120.449 26.9615 120.386 26.941C120.323 26.9201 120.255 26.9145 120.189 26.9246H118.615C118.319 26.9246 118.188 27.0852 118.213 27.4088V39.2015C118.188 39.4969 118.319 39.6557 118.615 39.6557H120.192C120.514 39.6557 120.677 39.4979 120.677 39.2015V34.3075H126.477V39.2015C126.477 39.4969 126.671 39.6557 126.989 39.6557H128.511C128.832 39.6557 128.995 39.4979 128.995 39.2015V27.4088C129.005 27.343 128.999 27.2754 128.979 27.212C128.958 27.1489 128.923 27.0911 128.875 27.0441C128.828 26.997 128.771 26.9615 128.707 26.941C128.644 26.9201 128.577 26.9145 128.511 26.9246H126.989C126.922 26.9141 126.854 26.9197 126.789 26.9399C126.724 26.9601 126.664 26.995 126.615 27.0416C126.566 27.0883 126.528 27.1458 126.504 27.2092C126.48 27.2729 126.471 27.3412 126.477 27.4088V32.0352H126.474Z" fill="white"/>
<path fill-rule="evenodd" clip-rule="evenodd" d="M114.789 26.9284H113.24C112.889 26.9284 112.703 27.089 112.703 27.4126V35.7033C112.292 36.2331 111.765 36.6606 111.162 36.9528C110.559 37.2451 109.897 37.3938 109.227 37.3876C107.678 37.3876 106.873 36.3432 106.873 34.3113V27.4126C106.873 27.0939 106.712 26.9284 106.42 26.9284H104.871C104.52 26.9284 104.334 27.089 104.334 27.4126V35.1132C104.334 38.2717 105.831 39.8737 108.827 39.8737C110.372 39.8967 111.867 39.3234 113 38.2727L113.241 39.3951C113.283 39.4724 113.345 39.5372 113.42 39.5836C113.495 39.6302 113.58 39.6567 113.668 39.6606H114.789C115.08 39.6606 115.246 39.5278 115.246 39.2596V27.4088C115.256 27.3454 115.252 27.2799 115.234 27.2182C115.215 27.1566 115.182 27.1001 115.138 27.0534C115.094 27.0064 115.039 26.9702 114.979 26.9479C114.918 26.9256 114.854 26.9176 114.789 26.9246V26.9284Z" fill="white"/>
<path fill-rule="evenodd" clip-rule="evenodd" d="M115.191 22.1728C115.191 21.8232 115.03 21.6372 114.714 21.6372H104.871C104.799 21.6289 104.726 21.637 104.657 21.6609C104.588 21.6849 104.525 21.7241 104.474 21.7756C104.422 21.8271 104.383 21.8895 104.359 21.9583C104.335 22.027 104.327 22.1004 104.335 22.1728V23.5887C104.327 23.6611 104.335 23.7347 104.359 23.8033C104.383 23.8719 104.422 23.9346 104.474 23.9862C104.525 24.0374 104.588 24.0767 104.657 24.1008C104.726 24.1245 104.799 24.1328 104.871 24.1245H114.713C115.029 24.1245 115.19 23.9374 115.19 23.5887V22.1728H115.191Z" fill="white"/>
<path fill-rule="evenodd" clip-rule="evenodd" d="M98.801 29.34C99.088 29.8228 99.2179 30.3829 99.173 30.9427V31.2333L96.3643 31.367C93.2107 31.5802 91.634 32.9736 91.634 35.5925C91.634 38.4274 93.2406 39.8706 96.4493 39.8706C97.6037 39.88 98.7362 39.5546 99.7095 38.9342L99.9254 39.3913C100.039 39.5313 100.2 39.6253 100.378 39.6567H101.346C101.586 39.6567 101.718 39.524 101.718 39.2557V30.94C101.718 27.9724 100.091 26.4731 96.7718 26.4731C95.4746 26.4462 94.185 26.6737 92.9752 27.1433C92.8982 27.1955 92.8324 27.2628 92.7815 27.3408C92.7306 27.4188 92.6958 27.5059 92.6791 27.5975V29.0164C92.7031 29.1703 92.7794 29.3111 92.8951 29.4156C93.0278 29.4403 93.1619 29.4581 93.2967 29.4685C94.4083 29.0575 95.5871 28.8586 96.7718 28.8819C97.4811 28.8157 98.1927 28.9753 98.8058 29.3379L98.801 29.34ZM96.4503 37.521C95.0043 37.521 94.3069 36.8779 94.3069 35.5956C94.2818 34.3364 94.9493 33.67 96.3148 33.5616L99.1235 33.2944L99.1747 36.717C98.3537 37.2189 97.4145 37.4952 96.4524 37.5182L96.4503 37.521Z" fill="white"/>
<path fill-rule="evenodd" clip-rule="evenodd" d="M33.6651 17.7119C36.1695 17.7123 38.6175 18.4553 40.6996 19.8469C42.7817 21.2386 44.4044 23.2164 45.3624 25.5302C46.3205 27.8439 46.5709 30.39 46.082 32.8462C45.5931 35.3024 44.3869 37.5583 42.6159 39.329C40.8448 41.0996 38.5885 42.3056 36.1322 42.7936C33.6759 43.282 31.13 43.0312 28.8164 42.0726C26.5027 41.1139 24.5253 39.4906 23.1341 37.4082C21.743 35.3261 21.0005 32.8779 21.0007 30.3733C21.0012 27.0152 22.3358 23.7943 24.7108 21.4199C27.0858 19.0454 30.3067 17.7116 33.6651 17.7119Z" fill="url(#paint0_linear_5438_104263)"/>
<path fill-rule="evenodd" clip-rule="evenodd" d="M24.1902 21.9792C30.4958 21.4507 36.8346 21.4507 43.1403 21.9792C41.9525 20.6385 40.4938 19.5652 38.8604 18.83C37.2271 18.095 35.4564 17.7148 33.6652 17.7148C31.8741 17.7148 30.1034 18.095 28.47 18.83C26.8367 19.5652 25.3779 20.6385 24.1902 21.9792Z" fill="#231F20"/>
<path fill-rule="evenodd" clip-rule="evenodd" d="M43.2647 38.627C36.8732 39.1042 30.4551 39.1042 24.0637 38.627C25.2521 40.0099 26.7252 41.1197 28.3821 41.8805C30.0391 42.6413 31.8409 43.035 33.6642 43.035C35.4875 43.035 37.2893 42.6413 38.9463 41.8805C40.6032 41.1197 42.0763 40.0099 43.2647 38.627Z" fill="#231F20"/>
<path fill-rule="evenodd" clip-rule="evenodd" d="M21.4165 27.1557C29.6537 27.0105 37.6876 26.9864 45.9143 27.1557C46.426 29.1274 46.4592 31.1927 46.0111 33.1801C37.6818 33.4222 29.4678 33.3591 21.3138 33.1801C21.1055 32.2583 21.0003 31.3161 21 30.3713C20.9993 29.2852 21.1389 28.2039 21.4155 27.154L21.4165 27.1557Z" fill="#231F20"/>
<path d="M39.6978 36.0847C46.644 36.0847 52.275 30.4693 52.275 23.5424C52.275 16.6154 46.644 11 39.6978 11C32.7516 11 27.1206 16.6154 27.1206 23.5424C27.1206 30.4693 32.7516 36.0847 39.6978 36.0847Z" fill="url(#paint1_radial_5438_104263)"/>
<path fill-rule="evenodd" clip-rule="evenodd" d="M33.6651 17.7119C36.1695 17.7123 38.6175 18.4553 40.6996 19.8469C42.7817 21.2386 44.4044 23.2164 45.3624 25.5302C46.3205 27.8439 46.5709 30.39 46.082 32.8462C45.5931 35.3024 44.3869 37.5583 42.6159 39.329C40.8448 41.0996 38.5885 42.3056 36.1322 42.7936C33.6759 43.282 31.13 43.0312 28.8164 42.0726C26.5027 41.1139 24.5253 39.4906 23.1341 37.4082C21.743 35.3261 21.0005 32.8779 21.0007 30.3733C21.0012 27.0152 22.3358 23.7943 24.7108 21.4199C27.0858 19.0454 30.3067 17.7116 33.6651 17.7119Z" fill="url(#paint2_radial_5438_104263)"/>
<defs>
<linearGradient id="paint0_linear_5438_104263" x1="21.0007" y1="30.3733" x2="46.3276" y2="30.3733" gradientUnits="userSpaceOnUse">
<stop stop-color="#D79041"/>
<stop offset="0.1" stop-color="#FBAF33"/>
<stop offset="0.3" stop-color="#FFC132"/>
<stop offset="0.447" stop-color="#FFD72E"/>
<stop offset="0.65" stop-color="#FFF229"/>
<stop offset="0.735" stop-color="#FBE82C"/>
<stop offset="0.881" stop-color="#F0CC33"/>
<stop offset="1" stop-color="#E6B03B"/>
</linearGradient>
<radialGradient id="paint1_radial_5438_104263" cx="0" cy="0" r="1" gradientUnits="userSpaceOnUse" gradientTransform="translate(39.6968 23.5414) scale(12.5598)">
<stop stop-color="white" stop-opacity="0.7"/>
<stop offset="0.155" stop-color="white" stop-opacity="0.534"/>
<stop offset="0.358" stop-color="white" stop-opacity="0.345"/>
<stop offset="0.55" stop-color="white" stop-opacity="0.195"/>
<stop offset="0.726" stop-color="white" stop-opacity="0.088"/>
<stop offset="0.882" stop-color="white" stop-opacity="0.023"/>
<stop offset="1" stop-color="white" stop-opacity="0"/>
</radialGradient>
<radialGradient id="paint2_radial_5438_104263" cx="0" cy="0" r="1" gradientUnits="userSpaceOnUse" gradientTransform="translate(33.6642 30.3733) scale(12.6625)">
<stop offset="0.9" stop-color="white" stop-opacity="0"/>
<stop offset="1" stop-color="white" stop-opacity="0.3"/>
</radialGradient>
</defs>
</svg>
