<svg width="150" height="60" viewBox="0 0 150 60" fill="none" xmlns="http://www.w3.org/2000/svg">
<path d="M101.825 47.3945H48.175C46.9737 47.3945 46 46.4205 46 45.2195V14.175C46 12.974 46.9737 12 48.175 12H101.825C103.026 12 104 12.974 104 14.175V45.2195C104 46.4205 103.026 47.3945 101.825 47.3945Z" fill="white"/>
<path d="M67.4293 13.1306C73.6179 13.1306 79.8062 13.1524 85.9944 13.1165C87.6938 13.1064 89.3936 13.0973 91.093 13.0755C91.238 13.0737 91.3815 13.0948 91.5258 13.1071C92.2164 13.1676 92.3962 13.7201 92.535 14.3019C93.997 20.4231 93.5326 26.9423 90.936 32.6999C90.244 34.2342 89.3983 35.6804 88.4634 37.0742C87.7286 38.1695 86.9282 39.2157 86.0528 40.2062C85.3994 40.9448 84.713 41.6504 83.9847 42.3094C82.6137 43.5501 81.1587 44.682 79.4625 45.4592C78.5628 45.8712 77.6192 46.1298 76.6379 46.2679C75.6592 46.4053 74.6764 46.4037 73.6941 46.3823C68.2685 46.265 62.8423 46.3562 57.4164 46.3321C54.6073 46.3194 51.7987 46.3292 48.9897 46.3323C48.6964 46.3328 48.4068 46.3089 48.1298 46.219C47.5542 46.0314 47.2055 45.5273 47.1725 44.8578C47.163 44.6682 47.1659 44.4775 47.1659 44.2872C47.1656 34.5514 47.1656 24.8155 47.1667 15.0798C47.1667 14.801 47.1721 14.5248 47.2268 14.2461C47.3581 13.5783 47.8888 13.1807 48.5619 13.1397C48.7965 13.1256 49.0321 13.1321 49.267 13.1321C55.3211 13.1317 61.3752 13.1317 67.4293 13.1306Z" fill="#274452"/>
<path d="M92.3514 39.5402C92.6885 39.4489 92.9622 39.256 93.2203 39.0501C94.3183 38.1725 95.135 37.0629 95.8316 35.8536C98.3435 31.492 99.8221 26.5979 100.112 21.5497C100.142 21.0357 100.145 20.5231 100.16 20.0098C100.163 19.9337 100.143 19.8522 100.21 19.7699C100.409 19.8282 100.589 19.9257 100.752 20.0693C102.695 21.7919 103.024 25.0631 102.814 27.4813C102.315 33.2048 99.1544 39.314 94.0805 42.2689C93.9638 42.3369 93.8456 42.4029 93.7262 42.4667C92.9426 42.885 92.1283 43.2138 91.2902 43.4944C91.1323 43.5473 90.9746 43.6013 90.818 43.6542C91.5093 43.6158 92.4641 43.4956 93.5469 43.1395C96.4411 42.1888 98.7468 40.0419 100.347 37.5008C100.741 36.876 101.094 36.2293 101.438 35.5768C101.459 35.5375 101.481 35.4965 101.534 35.4849C101.598 35.4864 101.625 35.5375 101.646 35.5875C102.45 37.4446 102.243 39.3497 101.109 41.0277C98.8784 44.3303 94.1648 46.3016 90.2665 46.3173C86.6739 46.3313 83.081 46.3277 79.4879 46.3262C79.3753 46.3262 79.2035 46.3857 79.1718 46.2262C79.1386 46.0563 79.3219 46.0768 79.427 46.0286C84.8781 43.5223 89.0028 39.1498 91.6916 33.8102C94.0276 29.1702 95.2012 23.9187 94.7435 18.7244C94.5967 17.0605 94.2877 15.4104 93.813 13.8089C93.7842 13.7125 93.7448 13.6182 93.7262 13.52C93.6607 13.1749 93.7628 13.0879 94.1164 13.1227C94.9987 13.209 95.7772 13.5356 96.4712 14.0819C97.784 15.115 98.2879 16.9888 98.5911 18.5635C99.1579 21.5128 98.5784 24.78 97.8895 27.6651C96.9928 31.4206 95.4785 35.0902 93.2957 38.2843C93.0633 38.6247 92.7942 38.9403 92.5435 39.2685C92.4763 39.3564 92.4152 39.4496 92.3514 39.5402Z" fill="url(#paint0_linear_5437_103856)"/>
<path d="M61.2837 27.1554C61.2782 26.6923 61.1339 26.2257 60.725 25.9658C60.3267 25.7128 59.7978 25.7182 59.4846 26.1032C59.4592 26.134 59.4048 26.1873 59.4208 26.233C59.4371 26.2787 59.5353 26.2681 59.5766 26.2888C59.6477 26.3243 59.6763 26.3954 59.6742 26.4711C59.6716 26.5592 59.6705 27.4042 59.6673 28.5686C58.6425 28.5624 57.6181 28.5561 56.5933 28.5501C56.5733 28.2956 56.5668 28.0103 56.5849 27.6997C56.6016 27.4133 56.6382 27.1284 56.694 26.8471C56.7187 26.7238 56.747 26.6016 56.7789 26.4802C56.8137 26.3468 56.9097 26.1826 56.8996 26.043C56.8981 26.0245 56.8938 26.005 56.8822 25.9905C56.8546 25.9564 56.8017 25.9622 56.7593 25.9731C56.4983 26.0398 56.2445 26.179 56.0448 26.3591C55.9832 26.4146 55.819 26.5708 55.67 26.8376C55.2752 27.544 55.2444 28.5445 55.2444 28.5445C55.2245 29.1917 55.1991 30.5025 55.8882 31.8632C55.8882 31.8632 56.3711 32.8173 57.0616 33.0522C57.1983 33.0986 57.2353 33.0683 57.2469 33.0531C57.3009 32.9842 57.1852 32.8653 57.1512 32.8127C57.0884 32.7152 57.0344 32.6123 56.988 32.5059C56.8923 32.2864 56.8289 32.054 56.7814 31.8195C56.6371 31.1061 56.544 30.384 56.5639 29.6557H59.6673C59.6673 30.5685 59.6673 31.4813 59.6673 32.3939C59.6673 32.5755 59.7412 32.75 59.9087 32.8352C60.0095 32.8867 60.1237 32.9048 60.236 32.9186C60.4325 32.9429 60.6333 32.9565 60.828 32.9193C60.9418 32.8974 61.0556 32.8562 61.1405 32.7776C61.2771 32.6503 61.2793 32.478 61.2793 32.3049C61.2793 30.9294 61.292 29.5542 61.2905 28.1789C61.2902 27.8378 61.2876 27.4967 61.2837 27.1554Z" fill="url(#paint1_linear_5437_103856)"/>
<path d="M57.0317 33.3967C55.7792 33.0306 55.2909 31.704 55.0234 30.5534C54.965 30.3029 54.9096 30.0557 54.8766 29.7994C54.7765 29.0262 54.7809 28.1754 55.0317 27.429C54.8403 27.472 54.7541 27.6366 54.6421 27.77C54.2342 28.2577 54.2023 28.8263 54.1824 29.3923C54.136 30.72 54.6207 31.6647 54.7294 31.8682C54.9734 32.3237 55.238 32.6244 55.3163 32.711C55.5951 33.019 55.8746 33.233 56.0892 33.3746C55.9191 33.3329 55.6781 33.2537 55.4207 33.0949C55.1822 32.9481 55.0118 32.7841 54.9002 32.6583C54.7385 32.4518 54.625 32.2702 54.5503 32.1408C54.3513 31.7957 54.103 31.3658 53.9769 30.7894C53.941 30.6272 53.9171 30.4628 53.8536 30.4561C53.7615 30.4467 53.6579 30.7744 53.6354 30.8452C53.5629 31.0738 53.5444 31.2846 53.5459 31.3966C53.5509 31.8312 53.8768 32.6775 54.6566 33.2517C54.6566 33.2517 55.3384 33.7534 56.5042 33.7922C56.5517 33.7938 56.8341 33.7873 57.0436 33.6372C57.1466 33.5636 57.2147 33.4505 57.0317 33.3967Z" fill="url(#paint2_linear_5437_103856)"/>
<path d="M77.3074 26.9936C77.3124 26.8345 77.3066 26.5981 77.2506 26.3132C77.2448 26.2831 77.2374 26.2106 77.2004 26.1265C77.1805 26.0808 77.1254 25.9601 76.9971 25.8775C76.9278 25.8336 76.8517 25.8075 76.7701 25.8082C76.7141 25.809 76.6574 25.8122 76.601 25.8122C76.5229 25.8129 76.4446 25.8144 76.3663 25.8148C76.2144 25.8162 76.0618 25.8129 75.9099 25.8184C75.7736 25.8238 75.646 25.8699 75.5492 25.9721C75.434 26.0928 75.3424 26.2657 75.1896 26.6355C75.1639 26.6967 75.1443 26.7486 75.1302 26.7841C75.0727 26.9095 74.2533 28.684 73.9446 29.1976C73.922 29.2362 73.8712 29.318 73.8085 29.3151C73.7458 29.318 73.6952 29.2362 73.6726 29.1976C73.3637 28.684 72.5445 26.9095 72.4868 26.7841C72.4727 26.7486 72.4528 26.6967 72.4274 26.6355C72.2748 26.2657 72.1831 26.0928 72.0678 25.9721C71.971 25.8699 71.8434 25.8238 71.7067 25.8184C71.555 25.8129 71.4022 25.8162 71.2505 25.8148C71.1724 25.8144 71.0941 25.8129 71.0158 25.8122C70.9596 25.8122 70.9031 25.809 70.8465 25.8082C70.7653 25.8075 70.6888 25.8336 70.6196 25.8775C70.4916 25.9601 70.4365 26.0808 70.4166 26.1265C70.3793 26.2106 70.3724 26.2831 70.3666 26.3132C70.31 26.5981 70.3046 26.8345 70.3097 26.9936C70.25 28.8194 70.1904 30.6447 70.1306 32.471C70.1328 32.5011 70.1386 32.5435 70.1552 32.5903C70.2488 32.8578 70.5877 32.9894 70.8491 32.9925C71.1133 32.9959 71.4287 32.8712 71.54 32.6287C71.5414 32.6263 71.5621 32.579 71.573 32.5265C71.6507 32.1544 71.6951 29.1599 71.7118 27.8553C72.4267 29.3198 72.986 30.4144 73.2445 30.8974C73.297 30.9967 73.409 31.1961 73.6157 31.2639C73.6751 31.2842 73.7411 31.2952 73.8085 31.2958C73.8756 31.2952 73.9419 31.2842 74.0014 31.2639C74.2076 31.1961 74.32 30.9967 74.3726 30.8974C74.6307 30.4144 75.1904 29.3198 75.905 27.8553C75.9215 29.1599 75.9665 32.1544 76.0442 32.5265C76.0549 32.579 76.0756 32.6263 76.0767 32.6287C76.1883 32.8712 76.5037 32.9959 76.7676 32.9925C77.0293 32.9894 77.3683 32.8578 77.4618 32.5903C77.4785 32.5435 77.4843 32.5011 77.4861 32.471C77.4266 30.6447 77.3668 28.8194 77.3074 26.9936Z" fill="url(#paint3_linear_5437_103856)"/>
<path d="M68.7058 26.0261C68.5575 25.8383 68.3034 25.8311 68.0596 25.8246C67.8283 25.818 67.5338 25.8101 67.3498 26.0149C67.2476 26.1287 67.2197 26.2628 67.211 26.344C67.2065 27.6915 67.2023 29.0389 67.1978 30.3863C67.2003 30.5186 67.1869 30.7669 67.054 31.0406C66.9132 31.329 66.7142 31.4925 66.6629 31.5329C66.6629 31.5329 66.3236 31.8008 65.8799 31.837C65.8355 31.8405 65.7889 31.8421 65.7889 31.8421C65.7773 31.8423 65.7657 31.8428 65.7541 31.8428C65.742 31.8428 65.7304 31.8423 65.7188 31.8421C65.7188 31.8421 65.6724 31.8405 65.6278 31.837C65.1841 31.8008 64.8448 31.5329 64.8448 31.5329C64.7937 31.4925 64.5943 31.329 64.4538 31.0406C64.3206 30.7669 64.3072 30.5186 64.3099 30.3863C64.3054 29.0389 64.3012 27.6915 64.2967 26.344C64.2885 26.2628 64.2606 26.1287 64.158 26.0149C63.9737 25.8101 63.6795 25.818 63.4481 25.8246C63.2041 25.8311 62.9505 25.8383 62.8019 26.0261C62.6851 26.1733 62.6941 26.3553 62.7036 26.4346C62.7036 27.8448 62.7036 29.2553 62.7036 30.6654C62.7036 31.0591 62.8166 31.5807 63.1941 32.0759C63.6181 32.632 64.2202 32.8799 64.4063 32.9488C64.7821 33.0887 65.1527 33.1279 65.266 33.1391C65.4625 33.1587 65.6301 33.1598 65.7541 33.1558C65.8777 33.1598 66.0452 33.1587 66.2415 33.1391C66.3551 33.1279 66.7256 33.0887 67.1015 32.9488C67.2873 32.8799 67.8896 32.632 68.3137 32.0759C68.6909 31.5807 68.804 31.0591 68.804 30.6654C68.804 29.2553 68.804 27.8448 68.804 26.4346C68.8136 26.3553 68.8225 26.1733 68.7058 26.0261Z" fill="url(#paint4_linear_5437_103856)"/>
<path fill-rule="evenodd" clip-rule="evenodd" d="M83.0991 33.0501C82.7603 33.1388 82.4116 33.1765 82.0638 33.1672C81.7158 33.1765 81.3676 33.1388 81.0283 33.0501C78.9267 32.5002 78.0491 30.012 78.6329 28.0618C78.8368 27.3821 79.2544 26.7839 79.8221 26.3573C80.4657 25.8744 81.2628 25.6214 82.0638 25.6025C82.8649 25.6214 83.6622 25.8744 84.3055 26.3573C84.8728 26.7839 85.2909 27.3821 85.495 28.0618C86.0785 30.012 85.2005 32.5002 83.0991 33.0501ZM83.6093 27.5079C83.2638 26.9576 82.6768 26.632 82.0638 26.6273C81.4506 26.632 80.8637 26.9576 80.5186 27.5079C80.02 28.3016 79.9814 29.3494 80.1927 30.2388C80.4124 31.1626 81.0256 32.1551 82.0638 32.1656C83.102 32.1551 83.715 31.1626 83.9348 30.2388C84.1465 29.3494 84.1072 28.3016 83.6093 27.5079Z" fill="url(#paint5_linear_5437_103856)"/>
<defs>
<linearGradient id="paint0_linear_5437_103856" x1="71.9765" y1="19.6406" x2="98.7535" y2="11.4206" gradientUnits="userSpaceOnUse">
<stop offset="0.329" stop-color="#9F8A39"/>
<stop offset="0.561" stop-color="#FCE7A2"/>
<stop offset="0.788" stop-color="#B7A14F"/>
</linearGradient>
<linearGradient id="paint1_linear_5437_103856" x1="57.2435" y1="33.6244" x2="52.3064" y2="29.8883" gradientUnits="userSpaceOnUse">
<stop offset="0.329" stop-color="#9F8A39"/>
<stop offset="0.561" stop-color="#FCE7A2"/>
<stop offset="0.788" stop-color="#B7A14F"/>
</linearGradient>
<linearGradient id="paint2_linear_5437_103856" x1="56.3244" y1="34.7146" x2="51.4498" y2="31.0256" gradientUnits="userSpaceOnUse">
<stop offset="0.329" stop-color="#9F8A39"/>
<stop offset="0.561" stop-color="#FCE7A2"/>
<stop offset="0.788" stop-color="#B7A14F"/>
</linearGradient>
<linearGradient id="paint3_linear_5437_103856" x1="75.9404" y1="36.0371" x2="68.2175" y2="31.9405" gradientUnits="userSpaceOnUse">
<stop offset="0.329" stop-color="#9F8A39"/>
<stop offset="0.561" stop-color="#FCE7A2"/>
<stop offset="0.788" stop-color="#B7A14F"/>
</linearGradient>
<linearGradient id="paint4_linear_5437_103856" x1="67.2396" y1="35.0627" x2="59.5503" y2="30.2487" gradientUnits="userSpaceOnUse">
<stop offset="0.329" stop-color="#9F8A39"/>
<stop offset="0.561" stop-color="#FCE7A2"/>
<stop offset="0.788" stop-color="#B7A14F"/>
</linearGradient>
<linearGradient id="paint5_linear_5437_103856" x1="84.9761" y1="36.0788" x2="76.3459" y2="31.0696" gradientUnits="userSpaceOnUse">
<stop offset="0.329" stop-color="#9F8A39"/>
<stop offset="0.561" stop-color="#FCE7A2"/>
<stop offset="0.788" stop-color="#B7A14F"/>
</linearGradient>
</defs>
</svg>
