<svg width="120" height="48" viewBox="0 0 120 48" fill="none" xmlns="http://www.w3.org/2000/svg">
<g clip-path="url(#clip0_1320_89)">
<path d="M77.3853 3H42.6147C40.6184 3 39 4.62105 39 6.62072V41.3793C39 43.379 40.6184 45 42.6147 45H77.3853C79.3816 45 81 43.379 81 41.3793V6.62072C81 4.62105 79.3816 3 77.3853 3Z" fill="#FEFEFE"/>
<path d="M76.8508 3.72729H42.9714C41.178 3.72729 39.7241 5.18354 39.7241 6.97991V41.0203C39.7241 42.8166 41.178 44.2729 42.9714 44.2729H76.8508C78.6442 44.2729 80.098 42.8166 80.098 41.0203V6.97991C80.098 5.18354 78.6442 3.72729 76.8508 3.72729Z" fill="#EFB310"/>
<path fill-rule="evenodd" clip-rule="evenodd" d="M43.64 28.7892V17.2129L41.564 17.6473V29.2787L43.64 28.7892Z" fill="black"/>
<path d="M46.8044 26.894V23.3841C46.8062 23.0635 46.9071 22.6595 47.1285 22.3668C47.4767 21.9065 48.2799 21.634 48.4974 22.3126C48.5942 22.6151 48.5821 22.7878 48.5821 23.0926V23.285L48.5821 27.6237L50.5667 27.1556V21.9219C50.5667 21.428 50.4865 21.0414 50.3272 20.7597C50.1689 20.4798 49.9382 20.2955 49.6402 20.2117C49.3395 20.1272 48.9787 20.1253 48.5572 20.2247C47.7845 20.4067 47.1185 20.9453 46.7239 21.6627L46.6945 21.6693L46.6945 20.8708L44.8064 21.3158L44.7881 26.5707C45.0179 26.4683 45.2848 26.4161 45.5517 26.4161C45.9614 26.4161 46.4532 26.6015 46.8044 26.894V26.894Z" fill="black"/>
<path d="M52.0887 19.6038L51.0952 19.8129V21.3178L52.0762 21.0734C52.1048 22.7232 51.9436 24.9354 52.2594 26.4736C52.2796 26.572 52.3097 26.6593 52.3469 26.736L54.4775 26.2336C54.4676 26.2221 54.458 26.2088 54.4495 26.1933C54.1643 25.6722 54.0955 25.0334 54.0949 24.4532L54.0906 20.6093L55.5086 20.2725V18.7854L54.0906 19.1134L54.095 17.4944L52.0762 17.976L52.0887 19.6038Z" fill="black"/>
<path d="M61.6153 21.3517C61.6321 20.0614 61.7063 18.1043 60.0523 17.7931C59.6795 17.723 59.2443 17.7133 58.6738 17.8493C58.1452 17.9753 57.7015 18.1499 57.3405 18.3696C56.9786 18.5899 56.7573 18.8536 56.5358 19.1449C56.3143 19.4361 56.1447 19.7541 56.0304 20.0978C55.9163 20.4407 55.8282 20.7918 55.7911 21.1677C55.754 21.5428 55.7083 21.9244 55.7156 22.3135C55.7224 22.6769 55.7291 23.0397 55.7632 23.398C55.8169 23.963 56.0692 24.8009 56.515 25.175C56.7644 25.3845 57.0125 25.5189 57.3211 25.5805C57.6928 25.6547 58.1657 25.6108 58.7315 25.476C59.3481 25.329 59.9176 25.1118 60.3166 24.8132C60.7164 24.5141 61.0425 24.1469 61.2397 23.7085C61.4368 23.2701 61.4898 22.7242 61.5007 22.1569L59.6782 22.5876C59.7551 22.9895 59.5381 23.8907 58.7115 23.9864C57.7254 24.1006 57.6986 23.0353 57.7358 22.2414L61.6153 21.3517V21.3517ZM57.7401 21.0345C57.7335 20.6834 57.7472 20.6683 57.8001 20.3593C57.8302 20.1834 57.8807 20.0151 57.9555 19.8565C58.0301 19.6983 58.1316 19.5625 58.2608 19.4463C58.39 19.33 58.5532 19.247 58.7485 19.1995C59.017 19.1343 59.2162 19.1614 59.3637 19.2553C59.6323 19.4264 59.6853 19.8123 59.6999 20.0945C59.7076 20.2427 59.7101 20.4033 59.7059 20.5721L57.7401 21.0345V21.0345Z" fill="black"/>
<path d="M62.3628 24.4266L64.3479 23.9627V20.0553C64.3715 19.3767 64.5027 18.7853 64.9937 18.3862C65.1194 18.284 65.3764 18.156 65.6128 18.0724C65.8841 17.9765 66.0925 17.9755 66.3741 17.9523C66.3853 17.9513 66.3963 17.949 66.4074 17.9472L66.4073 17.9214L66.3987 16.0891C65.8135 16.0604 65.3001 16.2911 64.8788 16.7363C64.6452 16.9831 64.4344 17.2864 64.2641 17.6694L64.2353 17.6761L64.2441 16.7232L62.3628 17.1757V24.4266V24.4266Z" fill="black"/>
<path d="M68.7193 17.9325V17.7336C68.7193 17.5458 68.7469 17.3509 68.8171 17.1975C68.8873 17.0442 68.9891 16.9131 69.127 16.8081C69.2649 16.7031 69.4079 16.6135 69.614 16.5879C69.9907 16.5411 70.2449 16.5358 70.3751 16.973C70.3958 17.0426 70.3952 17.1231 70.3952 17.2088C70.3952 17.367 70.371 17.5067 70.3202 17.6248C70.2694 17.7428 70.184 17.8495 70.0684 17.9439C69.9518 18.0392 69.8575 18.1265 69.6574 18.2136L68.5113 18.7124C68.1647 18.8632 67.8697 19.0378 67.6203 19.2111C67.371 19.3844 67.1651 19.5754 67.0054 19.7834C66.8457 19.9914 66.7168 20.235 66.6407 20.4976C66.5644 20.7611 66.5488 21.1083 66.5488 21.4481C66.5488 21.694 66.6112 21.9266 66.6786 22.1537C66.7467 22.3829 66.8792 22.5513 67.0268 22.7212C67.1745 22.8912 67.3729 23.0454 67.6146 23.1159C67.857 23.1867 68.1934 23.2321 68.542 23.161C68.8591 23.0962 69.1399 23.0122 69.3797 22.9083C69.6217 22.8033 69.8373 22.6619 70.0237 22.4863C70.2101 22.3106 70.3949 22.0607 70.5474 21.7804L70.5743 21.7765C70.6009 21.8938 70.6173 21.9835 70.6536 22.1076C70.6899 22.2318 70.7408 22.3441 70.8038 22.447L72.6339 22.0162C72.5661 21.8941 72.5021 21.8036 72.4658 21.6816C72.4295 21.5597 72.4064 21.4193 72.3932 21.2655C72.3799 21.1099 72.3487 20.9034 72.3477 20.6822L72.3302 16.9063C72.3287 16.5812 72.2561 16.2847 72.18 16.0327C72.1037 15.7806 71.947 15.5774 71.7461 15.4232C71.5452 15.2689 71.3618 15.1798 70.989 15.1513C70.6162 15.1227 70.1451 15.1498 69.5543 15.2717C69.1743 15.3501 68.8057 15.4859 68.476 15.6324C68.1449 15.7794 67.8712 15.9998 67.6195 16.225C67.3678 16.4501 67.188 16.798 67.0462 17.1123C66.905 17.4253 66.8657 17.7986 66.8657 18.2103V18.3825L68.7193 17.9325ZM70.3516 20.278C70.3482 20.4773 70.2671 20.6645 70.1917 20.8209C70.1526 20.902 70.1081 20.9771 70.0564 21.0455C69.7734 21.4197 69.1386 21.7308 68.7201 21.4099C68.6548 21.3599 68.6057 21.2912 68.571 21.2029C68.4431 20.8784 68.5074 20.4197 68.7039 20.1425C68.7322 20.1026 68.7606 20.0625 68.7889 20.0226C69.0195 19.7832 69.312 19.6059 69.6473 19.4714C69.6568 19.4676 69.7412 19.4248 69.8484 19.36C70.0647 19.2292 70.3768 19.0281 70.3735 19.0137L70.3516 20.278Z" fill="black"/>
<path d="M79.037 15.8839C79.0319 15.3097 78.9996 14.8097 78.806 14.425C78.6191 14.0534 78.3583 13.7979 77.9163 13.6626C77.4898 13.5319 76.9612 13.5415 76.3355 13.6754C75.8656 13.7759 75.4193 13.9089 75.0289 14.1167C74.6385 14.3245 74.2824 14.6169 73.9975 14.969C73.7139 15.3197 73.5244 15.7678 73.3712 16.2979C73.218 16.828 73.1872 17.4646 73.1924 18.2082C73.1976 18.9355 73.2901 19.5163 73.42 19.9818C73.55 20.4472 73.735 20.7922 73.9904 21.0298C74.2448 21.2664 74.507 21.4238 74.8897 21.4685C75.27 21.5129 75.7161 21.4756 76.2258 21.3615C76.9422 21.2011 77.4634 20.9554 77.8962 20.6133C78.8964 19.8227 79.0293 18.7965 79.0273 17.6521L77.1295 18.0904C77.1008 18.6887 77.1923 19.2802 76.644 19.668C76.5427 19.7396 76.4191 19.7802 76.2858 19.8095C75.9825 19.8763 75.7539 19.8426 75.5941 19.7024C75.4332 19.5613 75.3654 19.3024 75.3055 18.9411C75.2456 18.5798 75.2365 18.3611 75.2313 17.764C75.2276 17.3457 75.2368 16.9776 75.2635 16.6604C75.2903 16.3409 75.354 16.0694 75.4347 15.8472C75.5724 15.4682 75.9318 15.1034 76.3348 15.0278C76.8958 14.9226 77.0374 15.2599 77.0988 15.7368C77.1222 15.9187 77.131 16.0983 77.1219 16.1877C77.1173 16.2334 77.122 16.28 77.1218 16.3265L79.037 15.8839V15.8839Z" fill="black"/>
<path d="M77.6388 11.0242H77.7745C77.8396 11.0242 77.8889 11.0414 77.9227 11.076C77.9567 11.1106 77.974 11.1627 77.974 11.232C77.974 11.2855 77.9653 11.3289 77.9487 11.3622C77.9321 11.395 77.9074 11.4192 77.8755 11.4342C77.8436 11.4493 77.8044 11.457 77.7585 11.4566H77.6388V11.0242V11.0242ZM77.3516 12.3004H77.6388V11.6665H77.7924C77.8499 11.6669 77.8922 11.6837 77.9191 11.7168C77.946 11.7498 77.9603 11.7959 77.962 11.8554L77.97 12.1429C77.9706 12.1727 77.9733 12.201 77.9783 12.228C77.9829 12.2549 77.9922 12.279 78.0058 12.3004H78.317V12.2878C78.2994 12.278 78.2861 12.2622 78.2771 12.2399C78.2682 12.2178 78.2618 12.1884 78.2585 12.152C78.2555 12.1157 78.2535 12.0716 78.2532 12.0191C78.2525 11.9401 78.2492 11.8729 78.2432 11.8176C78.2372 11.7624 78.2263 11.7172 78.2103 11.6815C78.1944 11.6462 78.1714 11.6189 78.1415 11.6C78.1116 11.5808 78.0723 11.5682 78.0238 11.5615V11.5573C78.0777 11.5451 78.1222 11.5227 78.1571 11.4902C78.1924 11.4573 78.2183 11.4153 78.2356 11.3643C78.2529 11.3135 78.2612 11.2548 78.2612 11.188C78.2608 11.1026 78.2456 11.0312 78.2153 10.9739C78.185 10.9169 78.1415 10.8738 78.085 10.8448C78.0285 10.8161 77.961 10.8018 77.8822 10.8018H77.3516V12.3004V12.3004Z" fill="black"/>
<path fill-rule="evenodd" clip-rule="evenodd" d="M77.8063 10.2759C77.1239 10.2759 76.5708 10.8319 76.5708 11.5177C76.5708 12.2036 77.1239 12.7596 77.8063 12.7596C78.4886 12.7596 79.0417 12.2036 79.0417 11.5177C79.0417 10.8319 78.4886 10.2759 77.8063 10.2759V10.2759ZM77.8063 10.4272C77.2071 10.4272 76.7214 10.9154 76.7214 11.5177C76.7214 12.12 77.2071 12.6082 77.8063 12.6082C78.4055 12.6082 78.8911 12.12 78.8911 11.5177C78.8911 10.9154 78.4055 10.4272 77.8063 10.4272V10.4272Z" fill="black"/>
<path fill-rule="evenodd" clip-rule="evenodd" d="M51.3933 42.7271H47.5538C47.5159 42.7301 47.4742 42.7314 47.4285 42.7318C47.0276 42.7357 46.476 42.5291 45.9866 42.2839C44.4697 41.5238 44.207 39.9366 44.207 38.4504V37.4884V28.3578C44.207 27.6362 44.7964 27.0459 45.5167 27.0459C46.2371 27.0459 46.8101 27.6364 46.8265 28.3578C46.8673 30.1595 46.6957 33.0131 46.8278 34.5739C46.8465 34.7953 46.9992 34.8768 47.1252 34.8719C47.2426 34.8673 47.3562 34.7952 47.375 34.6142C47.4782 33.6192 47.3091 30.7818 47.3769 29.4731C48.4037 30.1764 49.4263 30.858 50.4616 31.5459C51.1181 31.9819 51.4329 32.3248 51.4329 33.5352L51.3933 42.7271V42.7271Z" fill="black"/>
<path fill-rule="evenodd" clip-rule="evenodd" d="M43.667 29.4177L41.2149 29.9922L41.0055 30.0413C40.9078 30.0656 40.8458 30.1459 40.8027 30.2467C40.6034 30.7129 40.7632 31.3199 41.1549 31.635C41.4115 31.8413 41.7723 31.9277 42.2135 31.8243L43.667 31.4861L43.667 29.4177Z" fill="black"/>
<path fill-rule="evenodd" clip-rule="evenodd" d="M43.667 32.094L41.2149 32.6685L41.0055 32.7175C40.9078 32.7419 40.8458 32.8222 40.8027 32.923C40.6034 33.3892 40.7632 33.9962 41.1549 34.3112C41.4115 34.5175 41.7723 34.6039 42.2135 34.5006L43.667 34.1624L43.667 32.094Z" fill="black"/>
<path fill-rule="evenodd" clip-rule="evenodd" d="M43.667 34.7529L41.2149 35.3274L41.0055 35.3765C40.9078 35.4008 40.8458 35.4811 40.8027 35.5819C40.6034 36.0481 40.7632 36.6552 41.1549 36.9702C41.4115 37.1765 41.7723 37.2629 42.2135 37.1595L43.667 36.8213L43.667 34.7529V34.7529Z" fill="black"/>
</g>
<defs>
<clipPath id="clip0_1320_89">
<rect width="42" height="42" fill="white" transform="translate(39 3)"/>
</clipPath>
</defs>
</svg>
