<svg width="150" height="60" viewBox="0 0 150 60" fill="none" xmlns="http://www.w3.org/2000/svg">
<path d="M122.51 23.889C121.647 21.3929 119.267 19.62 116.491 19.62H116.445C114.625 19.62 112.992 20.3665 111.849 21.5795C110.683 20.3665 109.05 19.62 107.253 19.62H107.207C105.62 19.62 104.151 20.2032 103.054 21.1596V20.6697C103.008 20.1798 102.611 19.8066 102.121 19.8066H97.8521C97.3389 19.8066 96.9189 20.2265 96.9189 20.7631V43.9512C96.9189 44.4645 97.3389 44.9077 97.8521 44.9077H102.121C102.588 44.9077 102.984 44.5578 103.054 44.0912V27.4349C103.054 27.3882 103.054 27.3183 103.054 27.2716C103.124 26.5251 103.661 25.9186 104.524 25.8486H104.687H105.13H105.317C105.667 25.8719 105.97 26.0119 106.227 26.1985C106.6 26.5018 106.81 26.945 106.81 27.4349L106.833 43.9979C106.833 44.5111 107.253 44.9543 107.767 44.9543H112.036C112.549 44.9543 112.945 44.5578 112.969 44.0445V27.4116C112.969 26.875 113.225 26.3618 113.669 26.0819C113.879 25.9419 114.158 25.8486 114.462 25.8253H114.625H115.068H115.255C116.188 25.8952 116.748 26.6184 116.725 27.4116L116.748 43.9512C116.748 44.4645 117.168 44.9077 117.681 44.9077H121.95C122.463 44.9077 122.883 44.4878 122.883 43.9512V26.1519C122.837 24.9388 122.697 24.4256 122.51 23.889Z" fill="#54C1F0"/>
<path d="M93.6084 19.8523H91.1589V15.8865C91.1589 15.8865 91.1589 15.8865 91.1589 15.8631C91.1589 15.3966 90.7623 15 90.2958 15C90.2491 15 90.1791 15 90.1325 15.0233C87.4264 15.7698 87.963 19.5257 83.0174 19.8289H82.9008H82.5275C82.4575 19.8289 82.3875 19.8289 82.3175 19.8523C81.8976 19.9456 81.571 20.3188 81.571 20.7621V25.0311C81.571 25.5443 81.991 25.9642 82.5275 25.9642H85.0936V44.0669C85.0936 44.5801 85.5135 45 86.0267 45H90.2491C90.7623 45 91.1822 44.5801 91.1822 44.0669V25.9642H93.585C94.0983 25.9642 94.5182 25.5443 94.5182 25.0311V20.8087C94.5415 20.2722 94.1216 19.8523 93.6084 19.8523Z" fill="#54C1F0"/>
<path d="M78.2237 19.8523H73.9547C73.4414 19.8523 73.0215 20.2722 73.0215 20.7854V29.6268C73.0215 30.1633 72.5783 30.6066 72.0184 30.6066H70.2222C69.6623 30.6066 69.219 30.1633 69.219 29.6034V20.8087C69.219 20.2955 68.7991 19.8756 68.2859 19.8756H64.0169C63.5036 19.8756 63.0837 20.2955 63.0837 20.8087V30.4899C63.0837 34.1758 65.6965 36.7885 69.3823 36.7885C69.3823 36.7885 72.1351 36.7885 72.2284 36.8118C72.7183 36.8585 73.1148 37.2784 73.1148 37.7916C73.1148 38.3048 72.7416 38.7248 72.2517 38.7714C72.2284 38.7714 72.205 38.7714 72.1817 38.7947L65.9298 38.8181C65.4166 38.8181 64.9966 39.238 64.9966 39.7512V44.0202C64.9966 44.5335 65.4166 44.9534 65.9298 44.9534H72.9049C76.5907 44.9534 79.2035 42.3406 79.2035 38.6548V20.8087C79.1802 20.2722 78.7603 19.8523 78.2237 19.8523Z" fill="#233266"/>
<path d="M36.8911 27.6895V29.6723V30.3255C36.8911 30.8854 36.4479 31.3286 35.888 31.3286H33.182V26.0565H35.888C36.4479 26.0565 36.8911 26.4997 36.8911 27.0596V27.6895ZM37.2644 19.8512H27.9331C27.4199 19.8512 27 20.2711 27 20.7843V24.9601V24.9834C27 25.0067 27 25.03 27 25.03V38.4437V43.9725C27 44.4857 27.3966 44.9056 27.8631 44.929H27.9331H32.2022C32.7154 44.929 33.1353 44.509 33.1353 43.9958L33.1586 37.5106H37.2411C40.6703 37.5106 43.0498 35.1311 43.0498 31.7019V25.6832C43.0731 22.2307 40.6936 19.8512 37.2644 19.8512Z" fill="#233266"/>
<path d="M54.602 37.7184V38.3949C54.602 38.4416 54.602 38.5116 54.5787 38.5582C54.5787 38.6049 54.5554 38.6515 54.5321 38.6982C54.3921 39.0714 54.0188 39.3514 53.5756 39.3514H51.8027C51.2428 39.3514 50.7996 38.9315 50.7996 38.4183V37.6018V37.5784V35.4323V35.199V34.7791C50.7996 34.2658 51.2428 33.8459 51.8027 33.8459H53.5756C54.1355 33.8459 54.5787 34.2658 54.5787 34.7791V37.7184H54.602ZM53.9255 19.8724H48.0002C47.487 19.8724 47.0437 20.269 47.0437 20.7588V22.4151V22.4385C47.0437 22.4618 47.0437 22.4618 47.0437 22.4851V24.7713C47.0437 25.2845 47.487 25.7044 48.0468 25.7044H53.6922C54.1355 25.7744 54.4854 26.101 54.5321 26.6142V27.1741C54.4854 27.664 54.1355 28.0139 53.7156 28.0606H50.9162C47.207 28.0606 44.5476 30.5333 44.5476 33.9859V38.8148V38.9315C44.5476 42.384 46.8338 44.8335 50.5196 44.8335H58.2646C59.6642 44.8335 60.784 43.7837 60.784 42.4774V26.2643C60.8073 22.3685 58.7778 19.8724 53.9255 19.8724Z" fill="#233266"/>
</svg>
