<svg width="150" height="60" viewBox="0 0 150 60" fill="none" xmlns="http://www.w3.org/2000/svg">
<path d="M48.338 29.669C48.338 21.0152 41.3228 14 32.6689 14C24.0152 14 17 21.0152 17 29.669C17 38.3226 24.0152 45.3381 32.6689 45.3381C41.3228 45.3381 48.338 38.3226 48.338 29.669Z" fill="#5F259F"/>
<path d="M39.782 25.5806C39.782 24.9678 39.2568 24.4426 38.6441 24.4426H36.543L31.7284 18.9276C31.2908 18.4023 30.5905 18.2272 29.8901 18.4023L28.2269 18.9276C27.9643 19.0151 27.8768 19.3653 28.0518 19.5404L33.3041 24.5301H25.338C25.0754 24.5301 24.9004 24.7052 24.9004 24.9678V25.8432C24.9004 26.4559 25.4255 26.9812 26.0385 26.9812H27.2638V31.1831C27.2638 34.3345 28.9271 36.1728 31.7284 36.1728C32.6039 36.1728 33.3041 36.0853 34.1796 35.7351V38.5364C34.1796 39.3242 34.7923 39.9371 35.5803 39.9371H36.8056C37.0684 39.9371 37.331 39.6745 37.331 39.4117V26.8936H39.3444C39.6069 26.8936 39.782 26.7186 39.782 26.4559V25.5806ZM34.1796 33.109C33.6542 33.3716 32.954 33.4591 32.4288 33.4591C31.0282 33.4591 30.3277 32.7588 30.3277 31.1831V26.9812H34.1796V33.109Z" fill="white"/>
<path d="M96.8463 35.8926V30.2027C96.8463 28.802 96.3211 28.1018 95.008 28.1018C94.4826 28.1018 93.8699 28.1893 93.5198 28.2768V36.593C93.5198 36.8556 93.2572 37.1182 92.9944 37.1182H90.981C90.7185 37.1182 90.4559 36.8556 90.4559 36.593V26.8762C90.4559 26.5261 90.7185 26.2633 90.981 26.1757C92.2942 25.7381 93.6073 25.4755 95.008 25.4755C98.1594 25.4755 99.9101 27.1388 99.9101 30.2027V36.6806C99.9101 36.9431 99.6476 37.2057 99.3847 37.2057H98.1594C97.3714 37.2057 96.8463 36.593 96.8463 35.8926ZM104.725 32.4786L104.637 33.2666C104.637 34.3169 105.337 34.9298 106.476 34.9298C107.351 34.9298 108.139 34.6672 109.014 34.2293C109.102 34.2293 109.189 34.1418 109.277 34.1418C109.452 34.1418 109.539 34.2293 109.627 34.3169C109.715 34.4046 109.89 34.6672 109.89 34.6672C110.065 34.9298 110.24 35.2799 110.24 35.5425C110.24 35.9803 109.977 36.418 109.627 36.593C108.664 37.1182 107.526 37.3808 106.301 37.3808C104.9 37.3808 103.762 37.0307 102.887 36.3304C102.011 35.5425 101.486 34.4922 101.486 33.179V29.765C101.486 27.0512 103.237 25.388 106.213 25.388C109.102 25.388 110.765 26.9637 110.765 29.765V31.8659C110.765 32.1285 110.502 32.3911 110.24 32.3911H104.725V32.4786ZM104.637 30.5528H107.964V29.6775C107.964 28.627 107.351 27.9265 106.301 27.9265C105.25 27.9265 104.637 28.5394 104.637 29.6775V30.5528ZM126.96 32.4786L126.872 33.2666C126.872 34.3169 127.572 34.9298 128.711 34.9298C129.586 34.9298 130.374 34.6672 131.249 34.2293C131.337 34.2293 131.424 34.1418 131.512 34.1418C131.687 34.1418 131.774 34.2293 131.862 34.3169C131.949 34.4046 132.125 34.6672 132.125 34.6672C132.3 34.9298 132.475 35.2799 132.475 35.5425C132.475 35.9803 132.212 36.418 131.862 36.593C130.899 37.1182 129.761 37.3808 128.535 37.3808C127.135 37.3808 125.997 37.0307 125.121 36.3304C124.246 35.5425 123.721 34.4922 123.721 33.179V29.765C123.721 27.0512 125.472 25.388 128.448 25.388C131.337 25.388 133 26.9637 133 29.765V31.8659C133 32.1285 132.737 32.3911 132.475 32.3911H126.96V32.4786ZM126.872 30.5528H130.199V29.6775C130.199 28.627 129.586 27.9265 128.535 27.9265C127.485 27.9265 126.872 28.5394 126.872 29.6775V30.5528ZM75.399 37.2057H76.6246C76.8872 37.2057 77.1498 36.9431 77.1498 36.6806V30.2027C77.1498 27.2263 75.5741 25.4755 72.948 25.4755C72.1601 25.4755 71.2847 25.6506 70.7595 25.8256V22.5867C70.7595 21.8865 70.1467 21.2736 69.4464 21.2736H68.2208C67.9582 21.2736 67.6956 21.5361 67.6956 21.799V36.6806C67.6956 36.9431 67.9582 37.2057 68.2208 37.2057H70.2342C70.4968 37.2057 70.7595 36.9431 70.7595 36.6806V28.4519C71.1972 28.2768 71.8099 28.1893 72.2476 28.1893C73.5607 28.1893 74.086 28.802 74.086 30.2902V35.9803C74.1735 36.593 74.6987 37.2057 75.399 37.2057ZM88.6176 29.8526V33.0915C88.6176 35.805 86.7791 37.4683 83.7154 37.4683C80.7391 37.4683 78.8131 35.805 78.8131 33.0915V29.8526C78.8131 27.1388 80.6515 25.4755 83.7154 25.4755C86.7791 25.4755 88.6176 27.1388 88.6176 29.8526ZM85.5537 29.8526C85.5537 28.802 84.9408 28.1018 83.8029 28.1018C82.6649 28.1018 82.0519 28.7145 82.0519 29.8526V33.0915C82.0519 34.1418 82.6649 34.7547 83.8029 34.7547C84.9408 34.7547 85.5537 34.1418 85.5537 33.0915V29.8526ZM66.0323 28.3644C66.0323 31.1654 63.9314 33.0915 61.1301 33.0915C60.4298 33.0915 59.817 33.004 59.2042 32.7412V36.6806C59.2042 36.9431 58.9416 37.2057 58.679 37.2057H56.6656C56.403 37.2057 56.1404 36.9431 56.1404 36.6806V22.7617C56.1404 22.4116 56.403 22.1491 56.6656 22.0615C57.9787 21.6237 59.2918 21.3611 60.6924 21.3611C63.8439 21.3611 66.0323 23.2869 66.0323 26.2633V28.3644ZM62.8809 26.0882C62.8809 24.6876 61.918 23.9873 60.6049 23.9873C59.817 23.9873 59.2918 24.2499 59.2918 24.2499V30.0276C59.817 30.2902 60.0797 30.3777 60.6924 30.3777C62.0055 30.3777 62.9684 29.5897 62.9684 28.2768V26.0882H62.8809ZM122.583 28.3644C122.583 31.1654 120.482 33.0915 117.681 33.0915C116.98 33.0915 116.367 33.004 115.755 32.7412V36.6806C115.755 36.9431 115.492 37.2057 115.23 37.2057H113.216C112.953 37.2057 112.691 36.9431 112.691 36.6806V22.7617C112.691 22.4116 112.953 22.1491 113.216 22.0615C114.529 21.6237 115.842 21.3611 117.243 21.3611C120.394 21.3611 122.583 23.2869 122.583 26.2633V28.3644ZM119.431 26.0882C119.431 24.6876 118.469 23.9873 117.155 23.9873C116.367 23.9873 115.842 24.2499 115.842 24.2499V30.0276C116.367 30.2902 116.63 30.3777 117.243 30.3777C118.556 30.3777 119.519 29.5897 119.519 28.2768V26.0882H119.431Z" fill="#5F259F"/>
</svg>
