<svg width="150" height="60" viewBox="0 0 150 60" fill="none" xmlns="http://www.w3.org/2000/svg">
<path d="M41.4837 26.1494C40.149 24.0138 39.3482 21.8116 39.1146 19.5427C37.146 17.941 34.0429 17.1736 29.7386 17.207C29.6385 18.942 29.9054 20.6772 30.506 22.3121H30.4727C30.9064 23.3465 31.5404 24.3141 32.3078 25.1816C32.3078 25.215 32.3412 25.2484 32.3412 25.2818C32.6081 25.582 32.9084 25.849 33.2421 26.0825C35.144 27.5173 37.3796 28.4181 39.9488 28.752C40.1824 27.7176 40.7163 26.8165 41.4837 26.1494Z" fill="#FF4081" stroke="#FF4081" stroke-width="0.4969" stroke-miterlimit="1.9874"/>
<path d="M33.2416 36.1928H33.2082C31.9737 38.0279 31.2062 40.6976 30.8726 44.1343C32.7411 44.4346 34.4762 44.3343 36.0778 43.8674C37.4458 43.4668 38.7138 42.7663 39.7815 41.8319V41.7986L40.0484 41.5317H40.0818C41.7835 39.7298 42.918 37.4941 43.4852 34.8248C42.7178 34.5912 41.9837 34.191 41.4165 33.6238C38.7805 35.292 36.0778 36.1594 33.2416 36.1928Z" fill="#FF4081" stroke="#FF4081" stroke-width="0.4969" stroke-miterlimit="1.9874"/>
<path d="M32.4074 27.1171C32.1405 26.8835 31.8402 26.6499 31.6066 26.3829C29.6046 26.9168 27.4024 28.1515 25 30.0866C26.001 31.5212 27.2689 32.7559 28.8038 33.6233C30.0384 34.3242 31.4398 34.758 32.9079 34.8247H33.275C35.8109 34.7914 38.2466 34.0239 40.5823 32.5223C40.1485 31.7882 39.8816 30.9541 39.8482 30.0866C36.9787 29.7197 34.5095 28.7186 32.4074 27.1171Z" fill="#FF4081" stroke="#FF4081" stroke-width="0.4969" stroke-miterlimit="1.9874"/>
<path d="M47.6224 25.5823C48.9571 23.5136 49.7245 21.3781 49.8914 19.1759V19.0758C49.9248 18.8089 49.9248 18.5419 49.9248 18.275C49.8914 16.7067 49.491 15.1719 48.6902 13.8038C47.8894 12.4024 46.7215 11.1345 45.1533 10C43.585 11.1011 42.4172 12.3691 41.6164 13.8038C40.8156 15.1719 40.4152 16.7067 40.3818 18.275C40.3818 18.5419 40.3818 18.8089 40.4152 19.0758V19.1759C40.582 21.3114 41.2828 23.3467 42.5507 25.3487C44.1857 24.5479 46.1209 24.6147 47.6224 25.5823Z" fill="#FF4081" stroke="#FF4081" stroke-width="0.4969" stroke-miterlimit="1.9874"/>
<path d="M49.4244 40.6638V40.6305C49.1575 38.5283 48.4234 36.4932 47.2222 34.4578C46.4881 34.8247 45.7207 35.0249 44.8865 35.0249C44.8531 35.0249 44.8198 35.0249 44.7864 35.0249C44.1524 37.9612 42.9179 40.4305 41.016 42.399C40.9826 42.399 40.9826 42.399 40.9826 42.4323C40.9826 42.4656 40.9826 42.4656 40.9492 42.4656C41.383 44.668 42.6843 47.0704 44.9199 49.773C46.3546 48.772 47.5225 47.4373 48.4234 45.936C49.0574 44.8347 49.4244 43.6003 49.5579 42.3657C49.4911 42.299 49.4911 42.1987 49.4578 42.0987C49.5245 41.6315 49.5245 41.131 49.4244 40.6638Z" fill="#FF4081" stroke="#FF4081" stroke-width="0.4969" stroke-miterlimit="1.9874"/>
<path d="M43.5855 26.3161C43.5187 26.3494 43.452 26.3494 43.3853 26.3827C41.7503 27.0499 40.816 28.7851 41.1163 30.5203C41.1497 30.6203 41.1497 30.7536 41.1831 30.8539C41.2164 30.9538 41.2498 31.0875 41.2832 31.1874C41.5501 31.9216 42.0506 32.5887 42.6846 33.0226C42.7513 33.0559 42.7847 33.0893 42.8514 33.1226C42.9849 33.1896 43.085 33.2562 43.2184 33.3229C43.3185 33.3562 43.3853 33.4232 43.4854 33.4565C43.9191 33.6231 44.3863 33.7234 44.8868 33.7234C44.9201 33.7234 44.9869 33.7234 45.0203 33.7234C45.5208 33.6901 46.0213 33.5898 46.4884 33.3895C48.4236 32.5554 49.2912 30.2867 48.457 28.3845C47.7229 26.7496 45.9545 25.8154 44.1861 26.1824C44.1193 26.1824 44.086 26.2158 44.0193 26.2158C43.9191 26.2158 43.7523 26.2491 43.5855 26.3161Z" fill="#FFD800" stroke="#FFD800" stroke-width="0.4969" stroke-miterlimit="1.9874"/>
<path d="M57.9326 23.1127H55.8972V22.7791H61.7363C64.7728 22.7791 67.1418 23.8134 67.1418 26.783C67.1418 29.6525 64.4059 30.7872 61.9365 30.7872C61.2361 30.7872 60.4353 30.6536 60.0014 30.4533V36.8933H62.1035V37.2268H55.8972V36.8933H57.9326V23.1127ZM60.0347 30.0198C60.5019 30.32 61.0691 30.4533 61.603 30.4533C62.9376 30.4533 64.9397 29.7528 64.9397 26.9832C64.9397 24.3139 63.7051 23.1461 61.2694 23.1461H60.0347V30.0198Z" fill="#03A9F4" stroke="#03A9F4" stroke-width="0.4969" stroke-miterlimit="1.9874"/>
<path d="M70.0452 29.1522H68.4103V28.8183H70.0452C70.7123 28.8183 71.3465 28.785 71.7467 28.3847V36.8931H73.382V37.2267H68.377V36.8931H70.0119L70.0452 29.1522ZM70.9126 23.6466C71.4798 23.6466 71.947 24.1137 71.947 24.681C71.947 25.2482 71.4798 25.7153 70.9126 25.7153C70.3454 25.7153 69.8782 25.2482 69.8782 24.681C69.8782 24.1137 70.3454 23.6466 70.9126 23.6466Z" fill="#03A9F4" stroke="#03A9F4" stroke-width="0.4969" stroke-miterlimit="1.9874"/>
<path d="M81.9571 36.0925C81.9571 36.4931 82.0241 36.9936 82.5579 36.9936C83.0251 36.9936 83.3254 36.593 83.6256 36.1595L83.8592 36.3261C83.4587 36.9936 82.9248 37.4271 82.0574 37.4271C81.0896 37.4271 80.3888 36.86 80.2555 36.1595H80.2222C79.5214 37.0936 78.6206 37.4271 77.2527 37.4271C75.6508 37.4271 74.6833 36.6264 74.6833 35.2251C74.6833 32.9227 77.7196 32.3555 79.8217 32.3555H80.2222V29.8532C80.2222 28.8854 79.3211 28.6518 78.5537 28.6518C77.9532 28.6518 76.5519 28.8854 76.5519 29.6196C76.5519 30.1201 77.219 29.8865 77.219 30.8206C77.219 31.3211 76.8188 31.688 76.2849 31.688C75.7177 31.688 75.3838 31.2545 75.3838 30.5536C75.3838 29.5193 76.4852 28.3516 78.5203 28.3516C80.0886 28.3516 81.9238 29.1523 81.9238 30.7206L81.9571 36.0925ZM79.8886 32.7224C78.387 32.7224 76.5185 32.7561 76.5185 34.9581C76.5185 36.0925 76.7185 36.9603 78.0198 36.9603C79.5547 36.9603 80.2222 35.8256 80.2222 35.392V32.7224H79.8886Z" fill="#03A9F4" stroke="#03A9F4" stroke-width="0.4969" stroke-miterlimit="1.9874"/>
<path d="M85.1267 34.224H85.3936C85.5606 35.2583 86.0944 37.0935 88.2299 37.0935C89.3642 37.0935 90.232 36.3594 90.232 35.1914C90.232 33.5898 88.9973 33.5565 87.9296 33.4232C86.595 33.2895 85.327 33.0893 85.327 30.9538C85.327 29.4859 86.2947 28.3179 87.8963 28.3179C88.9973 28.3179 89.7648 29.0187 89.9651 29.0187C90.0984 29.0187 90.0984 28.8851 90.0984 28.5848V28.4182H90.3986L90.4653 30.8539H90.1984C90.0651 29.6858 89.4309 28.6181 87.8293 28.6181C86.7949 28.6181 85.9608 29.1856 85.9608 30.2534C85.9608 31.3211 86.7616 31.688 88.1299 31.7546L88.8304 31.7879C90.4989 31.8882 91.1661 32.789 91.1661 34.1906C91.1661 36.0925 89.8981 37.3271 88.3299 37.3271C86.7283 37.3271 86.2278 36.4594 85.8275 36.4594C85.5606 36.4594 85.6272 36.7933 85.5939 37.2268H85.2603L85.1267 34.224Z" fill="#03A9F4" stroke="#03A9F4" stroke-width="0.4969" stroke-miterlimit="1.9874"/>
<path d="M94.1352 29.1519H92.3667V28.8183C94.5021 28.8516 95.2696 27.9509 95.6032 25.9487H95.8368V28.8183H98.6397V29.1519H95.8368V36.0254C95.8368 36.8598 96.1707 37.1267 96.8378 37.1267C97.8722 37.1267 98.3061 36.1923 98.4394 35.8254L98.7397 35.8921C98.6064 36.3926 98.0059 37.4603 96.5043 37.4603C95.0693 37.4603 94.1352 36.9931 94.1352 35.6252V29.1519Z" fill="#03A9F4" stroke="#03A9F4" stroke-width="0.4969" stroke-miterlimit="1.9874"/>
<path d="M101.743 29.1522H100.041V28.8186H101.743C102.41 28.8186 103.044 28.7853 103.478 28.3848V30.7871H103.511C103.745 29.853 104.479 28.3848 106.147 28.3848C106.915 28.3848 107.482 28.8853 107.482 29.5861C107.482 30.12 107.148 30.5538 106.548 30.5538C105.88 30.5538 105.647 30.2199 105.647 29.6528C105.613 29.2859 105.814 28.9519 106.081 28.7853C105.981 28.7187 105.88 28.7187 105.78 28.7187C104.946 28.7187 103.411 30.0533 103.411 32.7226V36.9268H105.28V37.2604H99.9746V36.9268H101.676L101.743 29.1522Z" fill="#03A9F4" stroke="#03A9F4" stroke-width="0.4969" stroke-miterlimit="1.9874"/>
<path d="M110.418 29.1522H108.783V28.8183H110.418C111.085 28.8183 111.719 28.785 112.153 28.3847V36.8931H113.788V37.2267H108.783V36.8931H110.418V29.1522ZM111.286 23.6466C111.853 23.6466 112.32 24.1137 112.32 24.681C112.32 25.2482 111.853 25.7153 111.286 25.7153C110.718 25.7153 110.251 25.2482 110.251 24.681C110.251 24.1137 110.718 23.6466 111.286 23.6466Z" fill="#03A9F4" stroke="#03A9F4" stroke-width="0.4969" stroke-miterlimit="1.9874"/>
<path d="M120.562 31.7213L121.563 30.3866C121.797 30.0527 122.064 29.6525 122.064 29.4855C122.064 29.2186 121.764 29.1186 121.163 29.1186H120.729V28.785H124.499V29.1186H123.899C123.098 29.1186 122.765 29.3855 122.197 30.0864L120.696 31.9882L123.665 36.8596H125V37.1935H119.995V36.8596H121.597L119.561 33.5231L118.06 35.4916C117.726 35.9255 117.559 36.2924 117.559 36.526C117.559 36.7263 117.659 36.8596 118.06 36.8596H118.994V37.1935H114.99V36.8596H115.491C116.525 36.8596 116.892 36.4593 117.726 35.3916L119.394 33.2229L116.958 29.1519H115.491V28.8184H120.229V29.1519H118.994L120.562 31.7213Z" fill="#03A9F4" stroke="#03A9F4" stroke-width="0.4969" stroke-miterlimit="1.9874"/>
</svg>
