<svg width="150" height="60" viewBox="0 0 150 60" fill="none" xmlns="http://www.w3.org/2000/svg">
<path fill-rule="evenodd" clip-rule="evenodd" d="M49.6953 16H57.8336V24.1382H49.6953V16ZM51.0996 17.4018H56.4311V22.7334H51.0996V17.4018ZM52.3717 18.6764H55.1572V21.4619H52.3717V18.6764ZM36.2589 20.405H40.6597C44.2716 20.405 47.2275 23.3609 47.2275 26.9729C47.2275 30.5848 44.2716 33.5389 40.6597 33.5389H36.2589V38.5927H32V23.6053H36.2589V20.405ZM36.2589 23.6216V30.3223H39.8945C41.7372 30.3223 43.2433 28.8137 43.2433 26.9729C43.2433 25.1302 41.7372 23.6216 39.8945 23.6216H36.2589ZM49.6953 26.9353H53.9512V38.5927H49.6953V26.9353ZM76.6112 20.405H81.0114C84.6233 20.405 87.5792 23.3609 87.5792 26.9729C87.5792 30.5848 84.6233 33.5389 81.0114 33.5389H76.6112V38.5927H72.3523V23.6053H76.6112V20.405ZM76.6112 23.6216V30.3223H80.2468C82.0894 30.3223 83.5956 28.8137 83.5956 26.9729C83.5956 25.1302 82.0894 23.6216 80.2468 23.6216H76.6112ZM63.8448 24.4529C66.2653 24.4529 68.4111 25.5971 69.7493 27.364L67.4379 29.6753C66.7982 28.4675 65.588 27.6532 64.2001 27.6532C62.1464 27.6532 60.4814 29.4364 60.4814 31.6368C60.4814 33.8348 62.1464 35.618 64.2001 35.618C65.588 35.618 66.7982 34.8031 67.4379 33.5953L69.7493 35.9048C68.4111 37.6741 66.2653 38.8183 63.8448 38.8183C59.7872 38.8183 56.5002 35.6016 56.5002 31.6368C56.5002 27.6695 59.7872 24.4529 63.8448 24.4529ZM106.134 44H110.313L117.963 24.6306H113.784L110.274 33.5146L106.767 24.6306H102.588L108.186 38.8037L106.134 44ZM101.577 38.3017H97.7141V37.2266C93.1241 40.2225 89.2824 38.2616 88.8204 35.3057C88.3044 32.0012 90.3035 29.6044 98.0955 30.2628C98.1101 27.293 93.6905 26.9044 90.6867 28.998L89.2945 26.2131C94.8031 23.2736 101.553 24.171 101.577 29.0599V38.3017ZM98.221 32.4796H94.9286C91.6344 32.4796 92.3565 36.7646 95.4998 36.0873C97.1175 35.7387 98.1191 34.6661 98.221 32.4796Z" fill="#20A63E"/>
</svg>
