<svg width="150" height="60" viewBox="0 0 150 60" fill="none" xmlns="http://www.w3.org/2000/svg">
<path d="M86.3801 17.129L87.4017 18.1506C87.6551 18.4041 88.0661 18.4041 88.3199 18.1506L89.3412 17.129C89.5946 16.8757 89.5946 16.4647 89.3412 16.2112L88.3202 15.1904C88.0664 14.9365 87.6548 14.9365 87.4011 15.1904L86.3801 16.2112C86.1269 16.4647 86.1269 16.8757 86.3801 17.129Z" fill="#939598"/>
<path d="M81.8618 20.1859C81.8618 19.4316 82.4734 18.8201 83.2277 18.8201H85.4801C87.5628 18.8201 89.2505 20.5082 89.2505 22.5905V35.728C89.2505 36.4824 88.6389 37.0939 87.8846 37.0939C87.1303 37.0939 86.5188 36.4824 86.5188 35.728V22.5905C86.5188 22.0167 86.0539 21.5518 85.4801 21.5518H83.2277C82.4734 21.5518 81.8618 20.9403 81.8618 20.1859Z" fill="#939598"/>
<path d="M70.7444 21.5542C68.2633 21.5547 66.2521 23.5661 66.2521 26.0473V43.6342C66.2521 44.3885 65.6406 45 64.8862 45C64.1319 45 63.5204 44.3885 63.5204 43.6342V26.0473C63.5204 22.057 66.7553 18.8225 70.7454 18.8225H70.7474L75.9405 18.8301C79.9205 18.8381 83.1424 22.0666 83.1424 26.0465V29.79C83.1424 33.78 79.908 37.015 75.9177 37.015H68.5801C67.8257 37.015 67.2142 36.4035 67.2142 35.6491C67.2142 34.8948 67.8257 34.2833 68.5801 34.2833H75.9177C78.3991 34.2833 80.4107 32.2716 80.4107 29.79V26.0465C80.4107 23.5734 78.4088 21.5671 75.9357 21.5618L70.7454 21.5542H70.7444Z" fill="#939598"/>
<path d="M90.8403 20.1741C90.8403 19.4197 91.4518 18.8082 92.2062 18.8082H94.4398C95.9511 18.8082 97.4006 19.4085 98.4693 20.4773L103.694 25.7022C103.838 25.8456 104.07 25.8456 104.213 25.7022L109.419 20.4964C110.488 19.4278 111.937 18.8275 113.449 18.8275H115.265C116.019 18.8275 116.63 19.439 116.63 20.1933C116.63 20.9476 116.019 21.5591 115.265 21.5591H113.449C112.662 21.5591 111.907 21.8717 111.351 22.428L106.145 27.6337C105.966 27.8125 105.771 27.9648 105.565 28.0907C105.771 28.2166 105.966 28.369 106.145 28.5477L111.351 33.7534C111.907 34.3097 112.662 34.6223 113.449 34.6223H115.265C116.019 34.6223 116.63 35.2338 116.63 35.9882C116.63 36.7425 116.019 37.354 115.265 37.354H113.449C111.937 37.354 110.488 36.7536 109.419 35.685L104.213 30.4793C104.07 30.3358 103.838 30.3358 103.694 30.4793L98.4693 35.7041C97.4006 36.7728 95.9511 37.3732 94.4398 37.3732H92.2062C91.4518 37.3732 90.8403 36.7616 90.8403 36.0073C90.8403 35.253 91.4518 34.6415 92.2062 34.6415H94.4398C95.2267 34.6415 95.9813 34.3289 96.5377 33.7725L101.763 28.5477C101.941 28.369 102.136 28.2166 102.343 28.0907C102.136 27.9648 101.941 27.8125 101.763 27.6337L96.5377 22.4089C95.9814 21.8525 95.2267 21.5399 94.4398 21.5399H92.2062C91.4518 21.5399 90.8403 20.9284 90.8403 20.1741Z" fill="#939598"/>
<path fill-rule="evenodd" clip-rule="evenodd" d="M67.4227 43.4951V41.1807H67.7178L67.7287 41.246L67.7305 41.2578C67.9739 41.202 68.2869 41.137 68.5206 41.137C68.7309 41.137 68.9464 41.1686 69.1297 41.3167L69.13 41.317C69.3452 41.4931 69.4056 41.7702 69.4056 42.047C69.4056 42.3447 69.3058 42.6434 69.0162 42.8091L69.0156 42.8097C68.8211 42.9187 68.5655 42.9603 68.3424 42.9603C68.146 42.9603 67.9569 42.9342 67.7642 42.8847V43.4951H67.4227ZM68.5051 41.4691C68.285 41.4691 68.0283 41.5183 67.7642 41.5781V42.5508C67.939 42.6073 68.1345 42.6346 68.3239 42.6346C68.5916 42.6346 68.7713 42.5891 68.8833 42.4995C68.9913 42.413 69.052 42.274 69.052 42.047C69.052 41.8312 69.0013 41.6907 68.9164 41.6035C68.8317 41.5167 68.6996 41.4691 68.5051 41.4691Z" fill="#939598"/>
<path fill-rule="evenodd" clip-rule="evenodd" d="M71.4948 41.2564C71.7564 41.4418 71.8423 41.7365 71.8423 42.0473C71.8423 42.3642 71.7531 42.6599 71.4945 42.8417C71.2719 43.0019 70.9863 43.039 70.7008 43.039C70.4078 43.039 70.123 42.9984 69.9038 42.8416C69.6455 42.6601 69.5559 42.3682 69.5559 42.0504C69.5559 41.7353 69.6457 41.4421 69.9022 41.2573L69.9025 41.257C70.122 41.0995 70.4073 41.0591 70.7008 41.0591C70.9922 41.0591 71.2732 41.1001 71.4948 41.2564ZM70.7008 41.5411C70.4361 41.5411 70.284 41.5842 70.1978 41.6531C70.1204 41.7147 70.0664 41.8221 70.0664 42.0379C70.0664 42.2452 70.1192 42.3612 70.2009 42.4313C70.288 42.506 70.4404 42.5567 70.7008 42.5567C70.9639 42.5567 71.1154 42.5142 71.201 42.4459C71.2778 42.3849 71.3318 42.2789 71.3318 42.0628C71.3318 41.8555 71.279 41.7381 71.197 41.6673C71.1105 41.5924 70.9591 41.5411 70.7008 41.5411Z" fill="#939598"/>
<path d="M73.9445 42.9169H74.2125L74.9276 41.1811H74.5604L74.0744 42.4L73.5402 41.2269L73.5196 41.1811H73.2491L72.7089 42.3994L72.2314 41.2299L72.2117 41.1811H71.8387L71.8833 41.2891L72.5334 42.8683L72.5538 42.9169H72.8221L72.843 42.8711L73.3788 41.7019L73.9233 42.8717L73.9445 42.9169Z" fill="#939598"/>
<path fill-rule="evenodd" clip-rule="evenodd" d="M75.2763 42.7666L75.2754 42.766C75.0663 42.5854 75.0013 42.3271 75.0013 42.0503C75.0013 41.7832 75.09 41.4855 75.3276 41.3116L75.3288 41.3107C75.5228 41.1756 75.7571 41.137 75.9896 41.137C76.196 41.137 76.451 41.1586 76.6649 41.304C76.9296 41.4812 76.9715 41.7902 76.9715 42.0971V42.1757H75.3559C75.3662 42.2968 75.3971 42.3976 75.4663 42.4725C75.5492 42.5621 75.7031 42.6319 75.9987 42.6319C76.281 42.6319 76.5457 42.5864 76.7991 42.5426L76.8018 42.542L76.8935 42.5263V42.8507L76.8288 42.8623C76.5669 42.9093 76.2695 42.9606 75.9835 42.9606C75.674 42.9606 75.4539 42.9163 75.2763 42.7666ZM75.9896 41.4597C75.7468 41.4597 75.5987 41.5137 75.5082 41.5932C75.4363 41.6567 75.3926 41.7432 75.3704 41.853H76.6137C76.5967 41.7298 76.5526 41.6427 76.4798 41.582C76.3884 41.5064 76.237 41.4597 75.9896 41.4597Z" fill="#939598"/>
<path d="M77.3442 42.9166H77.6854V41.5759C77.9901 41.4973 78.1288 41.4691 78.3513 41.4691H78.4733V41.137H78.3732C78.1103 41.137 77.9498 41.1786 77.7 41.2436C77.6907 41.2459 77.6813 41.2483 77.6717 41.2508L77.6514 41.256L77.6499 41.246L77.6389 41.1807H77.3442V42.9166Z" fill="#939598"/>
<path fill-rule="evenodd" clip-rule="evenodd" d="M78.7532 42.7666L78.7523 42.766C78.5432 42.5854 78.4782 42.3271 78.4782 42.0503C78.4782 41.7832 78.5668 41.4855 78.8045 41.3116L78.8057 41.3107C78.9997 41.1756 79.2343 41.137 79.4665 41.137C79.6732 41.137 79.9278 41.1586 80.1418 41.304C80.4065 41.4812 80.4487 41.7902 80.4487 42.0971V42.1757H78.833C78.8433 42.2968 78.8743 42.3976 78.9432 42.4725C79.0261 42.5621 79.1799 42.6319 79.4759 42.6319C79.7582 42.6319 80.0225 42.5864 80.276 42.5426L80.2787 42.542L80.3707 42.5263V42.8507L80.306 42.8623C80.0438 42.9093 79.7463 42.9606 79.4604 42.9606C79.1508 42.9606 78.9311 42.9163 78.7532 42.7666ZM79.4665 41.4597C79.2237 41.4597 79.0758 41.5137 78.9851 41.5932C78.9131 41.6567 78.8694 41.7432 78.8473 41.853H80.0905C80.0738 41.7298 80.0298 41.6427 79.9567 41.582C79.8656 41.5064 79.7141 41.4597 79.4665 41.4597Z" fill="#939598"/>
<path fill-rule="evenodd" clip-rule="evenodd" d="M82.3596 42.9166H82.6547V40.5149H82.3132V41.2136C82.1214 41.1656 81.9326 41.1371 81.738 41.1371C81.5122 41.1371 81.2563 41.1787 81.0615 41.291C80.7713 41.454 80.6718 41.7532 80.6718 42.0504C80.6718 42.3272 80.7325 42.604 80.9474 42.7798C81.131 42.9318 81.3477 42.9603 81.5568 42.9603C81.7908 42.9603 82.1038 42.8954 82.3469 42.8396L82.3487 42.8511L82.3596 42.9166ZM82.3132 41.5466V42.5215C82.0488 42.5788 81.7924 42.6283 81.5723 42.6283C81.3775 42.6283 81.2454 42.5809 81.161 42.4947C81.0764 42.4082 81.0254 42.2677 81.0254 42.0504C81.0254 41.8234 81.0861 41.684 81.1941 41.5978C81.3064 41.5083 81.4858 41.4625 81.7538 41.4625C81.9429 41.4625 82.1387 41.4901 82.3132 41.5466Z" fill="#939598"/>
<path fill-rule="evenodd" clip-rule="evenodd" d="M85.7921 42.8089L85.7915 42.8095C85.5973 42.9185 85.3417 42.96 85.1183 42.96C84.9049 42.96 84.6922 42.9276 84.4782 42.8654L84.4718 42.9163H84.1989V40.5149H84.5401V41.2491C84.779 41.1969 85.0758 41.1371 85.2965 41.1371C85.5068 41.1371 85.7226 41.1687 85.9056 41.3168L85.9059 41.3171C86.1214 41.4928 86.1818 41.7699 86.1818 42.0468C86.1818 42.3445 86.0817 42.6432 85.7921 42.8089ZM85.2813 41.4688C85.0609 41.4688 84.8045 41.5183 84.5401 41.5781V42.5482C84.7171 42.6067 84.9104 42.6347 85.0998 42.6347C85.3678 42.6347 85.5472 42.5888 85.6595 42.4993C85.7672 42.4131 85.8279 42.2738 85.8279 42.0468C85.8279 41.8309 85.7773 41.6904 85.6923 41.6033C85.6079 41.5168 85.4755 41.4688 85.2813 41.4688Z" fill="#939598"/>
<path d="M86.2696 43.5142L86.3385 43.5227C86.4189 43.5324 86.5002 43.5388 86.5761 43.5388C86.7458 43.5388 86.8866 43.5109 87.0083 43.4332C87.1294 43.3558 87.2217 43.235 87.3064 43.0674L88.2509 41.1811H87.8658L87.2348 42.461L86.5931 41.2232L86.571 41.1811H86.1812L87.0484 42.8401L87.0062 42.929C86.9455 43.0517 86.8875 43.1187 86.8259 43.1567C86.7646 43.1949 86.6896 43.2104 86.5828 43.2104C86.5276 43.2104 86.4465 43.2043 86.3561 43.1949L86.2696 43.1861V43.5142Z" fill="#939598"/>
<path fill-rule="evenodd" clip-rule="evenodd" d="M91.505 42.6881C91.2798 42.832 91.0078 42.8381 90.5104 42.8381H89.5758V40.6961H90.4888C90.9171 40.6961 91.1796 40.7025 91.3985 40.8339C91.5548 40.9277 91.6176 41.0716 91.6176 41.2592C91.6176 41.4841 91.5238 41.634 91.2798 41.7345V41.7466C91.5548 41.8095 91.7333 41.9503 91.7333 42.2535C91.7333 42.4596 91.658 42.594 91.505 42.6881ZM90.667 41.9375H90.0542V42.4912H90.67C91.0919 42.4912 91.2516 42.4438 91.2516 42.2128C91.2516 41.9655 91.0327 41.9375 90.667 41.9375ZM90.5544 41.04H90.0542V41.6028H90.5574C90.9736 41.6028 91.139 41.553 91.139 41.3184C91.139 41.0686 90.9295 41.04 90.5544 41.04Z" fill="#939598"/>
<path fill-rule="evenodd" clip-rule="evenodd" d="M93.6849 42.7443L93.6974 42.8384H94.0443V41.9032C94.0443 41.6689 94.01 41.4907 93.8285 41.3623C93.6536 41.2373 93.3689 41.2154 93.094 41.2154C92.8873 41.2154 92.6372 41.2279 92.4153 41.2464V41.5654C92.6153 41.5466 92.825 41.5375 92.9968 41.5375C93.4409 41.5375 93.6036 41.6188 93.6036 41.8656V41.8941C93.419 41.8814 93.1971 41.872 93.0314 41.872C92.8281 41.872 92.6062 41.8783 92.4402 41.9563C92.2529 42.041 92.1746 42.2064 92.1746 42.3846C92.1746 42.5443 92.231 42.6817 92.3497 42.7661C92.4778 42.8599 92.6593 42.8821 92.8281 42.8821C93.1034 42.8821 93.416 42.8104 93.6849 42.7443ZM93.0345 42.1503C93.2314 42.1503 93.419 42.1597 93.6036 42.1755V42.4817C93.3941 42.5288 93.1468 42.5755 92.9404 42.5755C92.6936 42.5755 92.5998 42.5005 92.5998 42.3631C92.5998 42.2158 92.7124 42.1503 93.0345 42.1503Z" fill="#939598"/>
<path d="M96.1054 42.8381V41.9654C96.1054 41.678 95.9588 41.5751 95.696 41.5751C95.502 41.5751 95.2583 41.6249 95.0519 41.675V42.8381H94.6109V41.2591H94.9706L94.9861 41.359C95.2644 41.2874 95.574 41.2154 95.8305 41.2154C96.0244 41.2154 96.2214 41.2434 96.3713 41.3778C96.4964 41.4904 96.5434 41.6464 96.5434 41.872V42.8381H96.1054Z" fill="#939598"/>
<path d="M97.2008 42.7164C97.3635 42.8538 97.5857 42.8821 97.7888 42.8821C98.0422 42.8821 98.3111 42.832 98.5582 42.7819V42.4568C98.3296 42.5005 98.095 42.5379 97.895 42.5379C97.5514 42.5379 97.4042 42.3913 97.4042 42.0504C97.4042 41.6877 97.6012 41.5563 98.0204 41.5563C98.1733 41.5563 98.3642 41.569 98.5239 41.5842V41.2464C98.3269 41.2279 98.1484 41.2154 97.9672 41.2154C97.7138 41.2154 97.4701 41.2434 97.2731 41.3718C97.0324 41.525 96.9507 41.797 96.9507 42.0468C96.9507 42.313 97.0072 42.56 97.2008 42.7164Z" fill="#939598"/>
<path fill-rule="evenodd" clip-rule="evenodd" d="M100.617 42.7164C100.423 42.8475 100.17 42.8821 99.8603 42.8821C99.5446 42.8821 99.2915 42.8441 99.1006 42.7164C98.8817 42.5725 98.8034 42.3348 98.8034 42.0504C98.8034 41.7657 98.8817 41.525 99.1006 41.3812C99.2915 41.2531 99.5446 41.2154 99.8603 41.2154C100.173 41.2154 100.423 41.2531 100.617 41.3812C100.836 41.525 100.911 41.7657 100.911 42.0468C100.911 42.3318 100.833 42.5725 100.617 42.7164ZM99.8603 41.5466C99.4414 41.5466 99.2569 41.6783 99.2569 42.038C99.2569 42.3973 99.4381 42.5509 99.8603 42.5509C100.276 42.5509 100.458 42.4222 100.458 42.0626C100.458 41.7032 100.279 41.5466 99.8603 41.5466Z" fill="#939598"/>
<path d="M102.687 42.6605C102.903 42.839 103.191 42.8827 103.456 42.8827C103.809 42.8827 104.157 42.8141 104.488 42.7482V42.3667C104.157 42.4356 103.828 42.4951 103.534 42.4951C103.084 42.4951 102.843 42.2698 102.843 41.7663C102.843 41.2725 103.103 41.0409 103.713 41.0409C103.932 41.0409 104.213 41.0567 104.441 41.0755V40.6909C104.175 40.6691 103.932 40.6536 103.694 40.6536C103.369 40.6536 103.046 40.6879 102.787 40.8564C102.453 41.0755 102.353 41.4506 102.353 41.7663C102.353 42.1196 102.431 42.4477 102.687 42.6605Z" fill="#939598"/>
<path fill-rule="evenodd" clip-rule="evenodd" d="M105.718 42.8821C105.458 42.8821 105.224 42.8508 105.049 42.7066C104.861 42.5509 104.796 42.316 104.796 42.0468C104.796 41.8061 104.874 41.5375 105.093 41.3812C105.286 41.2434 105.533 41.2154 105.784 41.2154C106.009 41.2154 106.275 41.2403 106.468 41.3751C106.722 41.5533 106.744 41.8286 106.747 42.1536H105.246C105.255 42.3943 105.384 42.5509 105.827 42.5509C106.103 42.5509 106.409 42.5103 106.669 42.4693V42.7789C106.365 42.829 106.034 42.8821 105.718 42.8821ZM105.784 41.4968C105.418 41.4968 105.277 41.6285 105.249 41.8692H106.312C106.3 41.6127 106.149 41.4968 105.784 41.4968Z" fill="#939598"/>
<path d="M108.708 41.9654V42.8381H109.146V41.872C109.146 41.6464 109.099 41.4904 108.974 41.3778C108.824 41.2434 108.627 41.2154 108.433 41.2154C108.177 41.2154 107.867 41.2874 107.589 41.359L107.573 41.2591H107.214V42.8381H107.654V41.675C107.861 41.6249 108.105 41.5751 108.299 41.5751C108.561 41.5751 108.708 41.678 108.708 41.9654Z" fill="#939598"/>
<path d="M110.401 42.8826C110.188 42.8826 109.994 42.8231 109.888 42.6574C109.81 42.5448 109.772 42.3918 109.772 42.1791V41.5881H109.453V41.26H109.772L109.819 40.7814H110.21V41.26H110.832V41.5881H110.21V42.095C110.21 42.2167 110.22 42.3199 110.254 42.3949C110.301 42.5011 110.404 42.5418 110.542 42.5418C110.645 42.5418 110.77 42.526 110.857 42.5108V42.8262C110.714 42.8547 110.548 42.8826 110.401 42.8826Z" fill="#939598"/>
<path d="M111.263 41.2591V42.8381H111.703V41.6719C111.944 41.6155 112.107 41.5906 112.323 41.5906C112.366 41.5906 112.426 41.5906 112.476 41.5936V41.2182C112.451 41.2154 112.432 41.2154 112.42 41.2154C112.153 41.2154 111.943 41.274 111.666 41.3513L111.638 41.359L111.622 41.2591H111.263Z" fill="#939598"/>
<path fill-rule="evenodd" clip-rule="evenodd" d="M114.172 42.8384L114.16 42.7443C113.89 42.8104 113.578 42.8821 113.303 42.8821C113.134 42.8821 112.952 42.8599 112.824 42.7661C112.706 42.6817 112.649 42.5443 112.649 42.3846C112.649 42.2064 112.727 42.041 112.915 41.9563C113.081 41.8783 113.303 41.872 113.506 41.872C113.671 41.872 113.894 41.8814 114.078 41.8941V41.8656C114.078 41.6188 113.915 41.5375 113.471 41.5375C113.3 41.5375 113.09 41.5466 112.89 41.5654V41.2464C113.112 41.2279 113.362 41.2154 113.569 41.2154C113.844 41.2154 114.128 41.2373 114.303 41.3623C114.485 41.4907 114.519 41.6689 114.519 41.9032V42.8384H114.172ZM114.078 42.1755C113.894 42.1597 113.706 42.1503 113.509 42.1503C113.187 42.1503 113.074 42.2158 113.074 42.3631C113.074 42.5005 113.168 42.5755 113.415 42.5755C113.621 42.5755 113.869 42.5288 114.078 42.4817V42.1755Z" fill="#939598"/>
<path d="M115.546 40.625H115.056V42.9126H115.546V40.625Z" fill="#939598"/>
<path d="M55.0624 38.4216C54.0026 38.4216 53.0062 38.0088 52.2569 37.26L48.2059 33.2092C47.9216 32.9239 47.4259 32.9248 47.1416 33.2092L43.0759 37.2749C42.3265 38.0237 41.33 38.4362 40.2703 38.4362H39.472L44.6026 43.5666C46.2048 45.1689 48.8028 45.1689 50.405 43.5666L55.5504 38.4216H55.0624Z" fill="#32BCAD"/>
<path d="M40.2711 24.0927C41.3308 24.0927 42.3274 24.5054 43.0766 25.2544L47.1423 29.3206C47.435 29.6135 47.9132 29.6147 48.2067 29.3203L52.2576 25.2691C53.007 24.5202 54.0034 24.1076 55.0632 24.1076H55.5511L50.4058 18.9624C48.8036 17.36 46.2058 17.36 44.6034 18.9624L39.473 24.0927H40.2711Z" fill="#32BCAD"/>
<path d="M59.8063 28.3636L56.6969 25.2543C56.6284 25.2817 56.5544 25.2989 56.4761 25.2989H55.0625C54.3316 25.2989 53.6162 25.5952 53.0998 26.112L49.0488 30.1629C48.6698 30.542 48.1718 30.7317 47.6742 30.7317C47.1759 30.7317 46.6784 30.542 46.2993 30.1632L42.2332 26.0972C41.7167 25.5805 41.0014 25.2841 40.2705 25.2841H38.5322C38.4581 25.2841 38.3888 25.2666 38.3234 25.2419L35.2018 28.3636C33.5994 29.9659 33.5994 32.5638 35.2018 34.166L38.3232 37.2874C38.3887 37.2629 38.4581 37.2453 38.5322 37.2453H40.2705C41.0014 37.2453 41.7167 36.949 42.2332 36.4324L46.2989 32.3665C47.0337 31.6322 48.3148 31.6319 49.0488 32.3671L53.0998 36.4173C53.6162 36.9341 54.3316 37.2307 55.0625 37.2307H56.4761C56.5544 37.2307 56.6284 37.2477 56.6969 37.2753L59.8063 34.166C61.4086 32.5638 61.4086 29.9659 59.8063 28.3636Z" fill="#32BCAD"/>
</svg>
