<svg width="150" height="60" viewBox="0 0 150 60" fill="none" xmlns="http://www.w3.org/2000/svg">
<path fill-rule="evenodd" clip-rule="evenodd" d="M103.497 18.4001C104.122 18.0187 104.813 17.7634 105.531 17.6479L122.416 15V24.0925C122.416 24.9274 122.117 27.1316 120.546 29.2395C120.034 29.8745 119.396 30.3895 118.675 30.7492C117.97 31.1385 117.198 31.3827 116.403 31.4683L105.229 32.6452C104.495 32.7265 103.785 32.9571 103.139 33.3228C102.822 33.4998 102.521 33.7066 102.241 33.9402H102.219L102.04 34.0998C101.963 34.1659 101.867 34.2597 101.813 34.3121C101.76 34.3645 101.728 34.3974 101.653 34.4772L101.642 34.489C101.569 34.5664 101.487 34.6544 101.431 34.7226C101.382 34.7826 101.325 34.8539 101.279 34.9115L101.279 34.9121L101.279 34.9127L101.255 34.9428C101.206 35.0035 101.158 35.0668 101.113 35.1301C101.103 35.1426 101.093 35.1554 101.083 35.1688C101.049 35.2157 101.017 35.2639 100.984 35.3117L100.944 35.3702L100.902 35.4335C100.877 35.471 100.855 35.5072 100.832 35.5453C100.813 35.5767 100.794 35.6095 100.771 35.6455C100.72 35.7253 100.675 35.8078 100.63 35.8904L100.629 35.8907C100.589 35.9653 100.549 36.0423 100.511 36.1194C100.506 36.1334 100.493 36.1581 100.493 36.1581C100.455 36.2324 100.418 36.3152 100.386 36.3868C100.354 36.4584 100.324 36.5299 100.295 36.6018C100.294 36.604 100.293 36.6061 100.292 36.6082C100.29 36.6125 100.287 36.6171 100.285 36.6213C100.277 36.6353 100.268 36.6503 100.268 36.6652L100.252 36.7118V36.7313C100.203 36.8397 100.162 36.9764 100.123 37.1047H100.123L100.119 37.1196C100.108 37.1494 100.099 37.1781 100.09 37.2088L100.085 37.2253C100.081 37.2408 100.076 37.257 100.071 37.274C100.055 37.323 100.041 37.376 100.027 37.4281V37.4284H100.027L100.02 37.4558C100.011 37.4875 100.004 37.5198 99.9985 37.5524C99.9823 37.6075 99.9689 37.6636 99.9583 37.7202C99.9574 37.7245 99.9561 37.7287 99.9552 37.7327C99.954 37.7373 99.9528 37.7415 99.9516 37.7458V37.7461C99.9443 37.7717 99.937 37.7985 99.937 37.825C99.936 37.8286 99.936 37.8323 99.936 37.8359C99.9363 37.8378 99.9366 37.8396 99.937 37.8414C99.9315 37.8737 99.9263 37.9048 99.9208 37.9358C99.9129 37.9824 99.905 38.029 99.8968 38.0784C99.8925 38.1043 99.8873 38.1302 99.8821 38.1557C99.8709 38.2115 99.8593 38.2669 99.8593 38.3239V38.4228C99.8514 38.4749 99.8462 38.5273 99.8435 38.58C99.8425 38.5928 99.8422 38.6059 99.8425 38.619V38.6272L99.8435 38.6406C99.8407 38.6625 99.8407 38.6848 99.8435 38.7067C99.8301 38.806 99.83 38.894 99.83 38.9823L99.806 24.9522C99.9641 23.0706 100.67 21.2823 101.832 19.8218C102.307 19.2568 102.87 18.7765 103.497 18.4001ZM108.626 26.5419L109.807 26.396L109.82 25.101L108.642 25.2525L108.714 19.8218L106.341 20.1662L103.27 25.6768L103.235 27.2031L106.953 26.7347L106.934 28.0492L105.977 28.1622L105.956 29.4655L109.358 29.0851L109.374 27.7709L108.61 27.8592L108.626 26.5419ZM115.537 28.3797L117.29 28.1814L117.363 24.1697L117.972 24.0953V22.7176L114.148 23.2219V24.5995L115.484 24.4314V26.4981C115.401 26.5812 115.311 26.6577 115.216 26.7265C115.125 26.7975 115.028 26.8593 114.925 26.9114C114.821 26.9671 114.712 27.0116 114.599 27.0436C114.479 27.0801 114.355 27.1057 114.23 27.1206H114.142H114.051H113.966H113.883C113.627 27.1005 113.382 27.0049 113.177 26.845C112.965 26.6744 112.796 26.4545 112.683 26.2031C112.538 25.8911 112.44 25.5586 112.391 25.2167C112.323 24.7897 112.293 24.3572 112.301 23.9244V23.7619C112.299 23.7399 112.299 23.7178 112.301 23.6958V23.6269V23.423V23.3266V23.1971C112.298 23.1779 112.298 23.1584 112.301 23.1392C112.298 23.1218 112.298 23.1042 112.301 23.0868C112.299 23.0712 112.299 23.0556 112.301 23.04C112.298 23.0134 112.298 22.9867 112.301 22.9601V22.8664C112.299 22.8582 112.299 22.8498 112.301 22.8416C112.304 22.8156 112.309 22.7899 112.314 22.7645V22.7645C112.322 22.7255 112.33 22.6871 112.33 22.6488V22.624C112.333 22.5962 112.337 22.5686 112.343 22.5413C112.342 22.523 112.342 22.5045 112.343 22.4862C112.349 22.4551 112.353 22.435 112.36 22.4037L112.37 22.3567C112.383 22.2933 112.405 22.2024 112.413 22.1721C112.416 22.1616 112.419 22.1515 112.423 22.1415V22.1414C112.43 22.1224 112.437 22.1037 112.437 22.0839C112.44 22.0679 112.445 22.0523 112.45 22.0371C112.458 22.0044 112.468 21.9722 112.48 21.9406C112.538 21.7506 112.612 21.5662 112.701 21.3896C112.843 21.103 113.046 20.8533 113.295 20.6594C113.536 20.4785 113.817 20.3637 114.113 20.326H114.211H114.305H114.398C114.428 20.3231 114.458 20.3231 114.487 20.326C114.644 20.3318 114.799 20.3674 114.944 20.4307C115.077 20.4942 115.199 20.5819 115.302 20.6897C115.408 20.8096 115.498 20.9441 115.569 21.0892C115.654 21.2583 115.723 21.4355 115.775 21.6183L117.309 21.1939C117.289 20.8813 117.227 20.5732 117.122 20.2792C117.023 20.0026 116.873 19.7482 116.681 19.5297C116.481 19.3055 116.237 19.1272 115.965 19.0062C115.643 18.8689 115.3 18.7923 114.952 18.7803H114.743C114.671 18.7762 114.599 18.7762 114.527 18.7803C114.48 18.782 114.434 18.7859 114.387 18.7899V18.7899C114.359 18.7923 114.33 18.7948 114.3 18.7968C114.219 18.8023 114.142 18.8134 114.059 18.8271C113.504 18.9016 112.969 19.0889 112.485 19.3782C112.02 19.6592 111.614 20.0341 111.293 20.4803C110.947 20.9737 110.689 21.5258 110.529 22.1115C110.342 22.8013 110.247 23.5141 110.245 24.2303C110.233 24.8357 110.283 25.4409 110.398 26.035C110.489 26.5285 110.656 27.004 110.892 27.4431C111.093 27.8226 111.378 28.1485 111.723 28.3937C112.071 28.6325 112.472 28.7738 112.889 28.804H113.043H113.198C113.253 28.807 113.307 28.807 113.362 28.804C113.417 28.8082 113.472 28.8082 113.527 28.804C113.768 28.7796 114.005 28.7239 114.233 28.6389C114.429 28.5725 114.616 28.4799 114.789 28.3632C114.947 28.2515 115.091 28.119 115.216 27.9691C115.339 27.8309 115.446 27.6795 115.537 27.5175V28.3797ZM112.221 23.3899C112.219 23.3945 112.219 23.3992 112.221 23.4038V23.3899ZM112.221 23.4038V23.487C112.219 23.4766 112.219 23.4619 112.22 23.4428V23.4427V23.4426C112.22 23.4312 112.221 23.4183 112.221 23.4038ZM107.041 21.3703L106.974 25.4509L104.63 25.7485L107.041 21.3703ZM62.2097 45H55.9024L55.8917 40.327L62.2097 40.1284V45ZM76.7891 45H69.4874V39.9024L76.7891 39.6737V45ZM76.7891 26.2638L69.4874 27.0902V22.004L76.7891 20.946V26.2638ZM43.7686 33.2044L47.3873 32.8763V37.3593L43.7686 37.5606V33.2044ZM95.4494 39.0898V45H78.4034V39.6216L95.4494 39.0898ZM69.4874 30.9228L74.2743 30.5013V35.8358L69.4874 36.1112V30.9228ZM55.1006 45H50.7549V24.729L55.1006 24.0953V45ZM87.4905 30.529C88.9177 28.7903 89.5216 26.9169 88.9362 25.674C88.5729 24.8806 87.7308 24.4866 86.7019 24.5444V18.9043C89.2408 18.5323 91.5607 19.166 93.1429 20.7062C94.5918 22.1178 95.331 24.1375 95.1476 26.1838C94.819 30.1017 92.9748 33.2403 87.838 38.4119L79.4325 38.6875C79.4325 38.6875 85.2881 33.2071 87.4905 30.529ZM85.7291 24.7814C84.6948 25.2278 83.6657 26.0488 83.9063 29.5093L78.6278 29.9945C78.3446 23.8666 80.7766 20.1276 85.7291 19.0255V24.7814ZM49.2822 45H43.7686V40.7071L49.2822 40.5335V45ZM43.047 45H39.2251V26.3906L43.047 25.8394V45ZM49.2822 29.3939L43.7686 30.0164V25.7347L49.2822 24.9356V29.3939ZM34.7805 45H31.1537V32.036L34.7805 31.6505V45ZM37.8888 30.6804L28 31.8018V28.0215L37.8888 26.5833V30.6804ZM68.5521 45H63.5462V22.8526L68.5521 22.1307V45Z" fill="#B6B6B6"/>
</svg>
