<svg width="150" height="60" viewBox="0 0 150 60" fill="none" xmlns="http://www.w3.org/2000/svg">
<path fill-rule="evenodd" clip-rule="evenodd" d="M108.661 42.1201L122.123 29.802L115.788 17.132L108.661 42.1201Z" fill="#097939"/>
<path fill-rule="evenodd" clip-rule="evenodd" d="M104.13 42.1201L117.592 29.802L111.257 17.132L104.13 42.1201Z" fill="#ED752E"/>
<path fill-rule="evenodd" clip-rule="evenodd" d="M39.7238 17.264L34.0487 37.5008L54.1976 37.6328L59.6967 17.264H64.7999L58.201 40.9323C57.937 41.8562 56.9692 42.5601 56.0453 42.5601H30.1773C28.5935 42.5601 27.6697 41.3283 28.1096 39.8325L34.4446 17.264H39.7238ZM102.018 17.132H107.121L100.039 42.5601H94.8033L102.018 17.132ZM65.4159 27.7343L90.9319 27.5584L92.6477 22.1912H66.6917L68.2314 17.264L95.9032 17C97.6189 17 98.6307 18.3198 98.1908 19.9915L95.5952 29.5381C95.1553 31.2098 93.3516 32.5296 91.6358 32.5296H68.8033L66.1197 43H61.1485L65.4159 27.7343Z" fill="#747474"/>
</svg>
