<svg width="150" height="60" viewBox="0 0 150 60" fill="none" xmlns="http://www.w3.org/2000/svg">
<path fill-rule="evenodd" clip-rule="evenodd" d="M125.027 33.2839H123.196V26.9697H125.027C126.655 26.8498 128.073 28.072 128.193 29.7C128.203 29.8439 128.203 29.9894 128.193 30.1338C128.263 31.8025 126.968 33.2119 125.299 33.2823C125.206 33.2865 125.114 33.286 125.022 33.2813L125.027 33.2839ZM125.027 35.1762C128.193 35.1762 130.388 33.1775 130.388 30.1338C130.388 27.0907 128.188 25.0763 125.027 25.0763H121.045V35.1762H125.027ZM111.752 29.6948H109.496V26.9697H111.745C112.498 26.8904 113.172 27.4364 113.252 28.1888C113.33 28.9413 112.785 29.6155 112.032 29.6948C111.936 29.7047 111.841 29.7047 111.745 29.6948H111.752ZM116.957 37.7073L113.252 31.33C114.619 31.0005 115.552 29.7355 115.462 28.3317C115.529 26.5958 114.176 25.1352 112.44 25.069C112.317 25.0643 112.193 25.0669 112.07 25.0763H107.345V35.1762H109.495V31.5861H111.07L114.488 37.7053L116.957 37.7079V37.7073ZM98.7756 31.5699H95.6261L97.2009 27.2236L98.7762 31.5699H98.7756ZM102.44 35.1736L98.5488 25.0742H95.8545L91.9468 35.1736H94.3997L95.0353 33.4617H99.367L99.9875 35.1736H102.44ZM83.6537 35.3556C85.4193 35.3968 87.0561 34.4342 87.8784 32.8714L86.0257 31.9787C85.5663 32.8709 84.6517 33.4356 83.6479 33.4471C81.8166 33.3564 80.4056 31.7983 80.4958 29.967C80.5808 28.2624 81.9433 26.8993 83.6479 26.8148C84.6496 26.8326 85.5611 27.3957 86.0257 28.2832L87.8784 27.3743C87.0561 25.8126 85.4172 24.8557 83.6537 24.9063C80.7685 24.8198 78.3599 27.0891 78.2734 29.9743C78.1873 32.8595 80.4561 35.268 83.3418 35.3546C83.4456 35.3577 83.5499 35.3577 83.6537 35.3546V35.3556ZM73.3775 35.1736V33.2813H68.5014L73.2716 26.7961V25.0695H65.6851V26.9629H70.4553L65.6851 33.4289V35.1658L73.3775 35.1736ZM55.5426 35.3556C58.6163 35.3556 60.1008 33.6442 60.1008 31.1308V25.0742H57.9004V31.0704C57.9004 32.3792 56.8393 33.4409 55.5303 33.4409C54.2213 33.4409 53.1605 32.3792 53.1605 31.0704V25.0742H50.9797V31.1496C50.9797 33.6322 52.4632 35.3593 55.538 35.3593L55.5426 35.3556Z" fill="#233C7E"/>
<path fill-rule="evenodd" clip-rule="evenodd" d="M133 24.8851V24.9096C133 25.9478 132.159 26.7904 131.121 26.7915C130.082 26.792 129.239 25.9504 129.239 24.9117C129.238 23.8729 130.079 23.0308 131.118 23.0303H131.119H132.999L133 24.8851Z" fill="#233C7E"/>
<path fill-rule="evenodd" clip-rule="evenodd" d="M41.6047 31.134C41.6047 35.5987 40.5844 38.926 38.5457 41.0938C36.5069 43.2619 33.3567 44.3452 29.1098 44.3452C25.1419 44.3452 22.1316 43.2614 20.0788 41.0938C18.026 38.9263 16.9998 35.6572 17 31.2866V16.623C17.001 16.2795 17.2791 16.0012 17.6227 16H24.8174C25.1609 16.001 25.4393 16.2794 25.4403 16.623V31.607C25.4403 33.3917 25.7704 34.765 26.4423 35.7341C27.6518 37.3377 29.9323 37.6568 31.5358 36.4475C31.7764 36.2659 31.9936 36.0552 32.1821 35.8202C32.8388 34.9111 33.166 33.5712 33.1639 31.8009V28.9948H41.6047V31.134Z" fill="#203E7A"/>
<path fill-rule="evenodd" clip-rule="evenodd" d="M40.9519 27.3558H33.1643V16.6524C33.1653 16.2925 33.4568 16.0009 33.8168 16H34.9823C34.9849 19.6545 37.9483 22.6158 41.6028 22.6158H41.6046V27.3558H40.9519Z" fill="#203E7A"/>
<path fill-rule="evenodd" clip-rule="evenodd" d="M36.6414 16H40.9526C41.3124 16.0011 41.6041 16.2926 41.6049 16.6524V20.969C38.8637 20.969 36.6414 18.7467 36.6414 16.0054V16V16Z" fill="#F4821F"/>
</svg>
