<svg width="150" height="60" viewBox="0 0 150 60" fill="none" xmlns="http://www.w3.org/2000/svg">
<path d="M29.7671 39.0403L33.0847 27.8592L36.3741 39.0403H38.9294L45.2118 21.7743H40.8212L37.5741 32.306L34.7788 21.7743H31.5035L28.6377 32.306L25.4612 21.7743H21L27.2541 39.0403H29.7671Z" fill="white"/>
<path d="M60.4446 30.1745C60.4446 25.2051 56.4068 21.0969 51.494 21.0969C46.4822 21.0969 42.4022 25.2758 42.4022 30.4571C42.4022 35.5676 46.4399 39.6475 51.5222 39.6475C55.2493 39.6475 58.7365 37.0921 59.8091 33.6051H55.2493C54.3175 35.13 53.0752 35.8498 51.3811 35.8498C49.2775 35.8498 47.3434 34.3252 46.7928 32.2638H60.1906C60.4021 31.2476 60.4446 30.7957 60.4446 30.1745ZM46.6657 28.9183C47.2163 26.4618 49.1928 24.8804 51.5646 24.8804C53.9363 24.8804 55.814 26.4336 56.4068 28.9183H46.6657Z" fill="white"/>
<path d="M63.7762 39.0399V36.9788C65.4704 38.8423 67.2353 39.6328 69.5789 39.6328C74.4211 39.6328 78.1764 35.6236 78.1764 30.4424C78.1764 25.2894 74.3079 21.1812 69.5082 21.1812C67.3339 21.1812 65.4704 21.9435 64.1152 23.3553V16H59.9645V39.0399H63.7762ZM68.9999 24.993C71.9082 24.993 74.04 27.3083 74.04 30.3859C74.04 33.5622 71.9647 35.8494 69.0706 35.8494C66.1058 35.8494 63.8612 33.4636 63.8612 30.287C63.8469 27.3365 66.1341 24.993 68.9999 24.993Z" fill="white"/>
<path fill-rule="evenodd" clip-rule="evenodd" d="M81.9743 43.2328V36.047C83.6968 37.6704 84.9391 38.207 87.127 38.207C91.8424 38.207 95.5977 34.1974 95.5977 29.1433C95.5977 24.0893 91.9271 20.2069 87.1695 20.2069C84.8402 20.2069 82.9909 21.0822 81.6354 22.7622V20.7857H77.9222V43.2471H81.9743V43.2328ZM86.6615 23.9198C89.3577 23.9198 91.5463 26.2775 91.5463 29.214C91.5463 32.1506 89.3577 34.5081 86.6187 34.5081C83.88 34.5081 81.7057 32.1788 81.7057 29.214C81.7057 26.2493 83.8943 23.9198 86.6615 23.9198Z" fill="#FCC030"/>
<path fill-rule="evenodd" clip-rule="evenodd" d="M108.402 20.7857V22.9034C107.16 21.3222 104.859 20.2069 102.741 20.2069C97.9554 20.2069 94.313 24.0469 94.313 29.1012C94.313 34.3245 97.7861 38.207 102.501 38.207C104.591 38.207 107.16 37.0636 108.402 35.5812V37.6422H112.115V20.7857H108.402ZM103.348 34.5081C100.553 34.5081 98.3644 32.221 98.3644 29.3126C98.3644 26.2493 100.525 23.9198 103.348 23.9198C106.214 23.9198 108.303 26.1503 108.303 29.1433C108.303 32.2492 106.214 34.5081 103.348 34.5081Z" fill="#FCC030"/>
<path fill-rule="evenodd" clip-rule="evenodd" d="M119.287 43.2331L129 20.7859H124.383L120.303 31.5858L116.492 20.7859H111.875L118.044 36.0329L114.939 43.2331H119.287Z" fill="#FCC030"/>
</svg>
