<svg width="150" height="60" viewBox="0 0 150 60" fill="none" xmlns="http://www.w3.org/2000/svg">
<path d="M79.127 30.8017C76.751 30.9844 74.3753 31.1671 71.9993 31.3957C70.5373 31.5328 69.0905 31.746 67.5674 31.9287C67.7197 30.8626 67.8721 29.8727 68.0395 28.8067C68.2375 28.9588 68.3442 29.035 68.4507 29.0959C69.9128 30.1316 71.3139 29.9945 72.502 28.6696C73.4157 27.6491 73.9184 26.3851 74.2991 25.0905C74.9083 23.0345 75.3195 20.9633 74.7559 18.8158C74.2535 16.9578 72.4562 16.4857 71.055 17.8411C70.7809 18.1152 70.4917 18.3742 70.2478 18.6026C70.1869 18.3894 70.1869 18.0695 70.0348 17.9173C69.3647 17.2471 68.2528 17.5822 68.0701 18.496C67.5523 21.1156 67.0649 23.735 66.5166 26.3395C66.4557 26.6593 66.1815 26.979 65.9379 27.2226C65.7703 27.375 65.4811 27.4055 65.2372 27.4817C65.146 27.2226 64.9784 26.9637 64.9937 26.7201C65.1002 25.7912 65.2525 24.8772 65.4352 23.9635C65.755 22.3644 66.1053 20.7806 66.4251 19.1965C66.5471 18.6178 66.3033 18.2523 65.6941 18.1C64.826 17.8868 64.6739 17.9477 64.1256 18.9529C62.6177 18.0695 61.5363 18.2218 60.3028 19.5012C59.2518 20.5824 58.6123 21.9075 58.1098 23.3087C57.4244 25.2428 57.0588 27.2076 57.5309 29.233C57.7442 30.1316 58.2316 30.8017 59.1606 31.0759C60.1658 31.3653 61.0033 31.0912 61.704 30.3602C62.0085 30.0402 62.2523 29.6442 62.5415 29.2482C62.7395 29.964 63.166 30.5429 63.9123 30.4972C64.5671 30.4514 65.1916 30.1469 65.8465 29.9489C65.74 30.4972 65.5723 31.0606 65.5267 31.6393C65.4811 32.1573 65.222 32.3094 64.7498 32.3856C62.0999 32.7815 59.45 33.2233 56.7846 33.6496C55.9471 33.7867 55.1093 33.9391 54.1651 34.1067C54.546 32.7359 54.9114 31.4871 55.2464 30.2381C56.1907 26.8419 57.1502 23.4305 58.064 20.0343C58.3078 19.1509 57.9269 18.8006 57.0435 19.0138C55.9927 19.2727 55.3379 19.9275 54.9723 20.9633C54.2412 23.0192 53.4949 25.0752 52.6727 27.1008C52.4442 27.6797 51.9417 28.1669 51.4695 28.6087C51.2563 28.8067 50.708 28.9132 50.4947 28.7761C50.2664 28.639 50.1293 28.1518 50.1596 27.8318C50.2055 27.2076 50.3882 26.5984 50.5406 25.9891C50.8756 24.7401 51.2866 23.5067 51.5761 22.2426C51.7588 21.4201 51.0886 20.7653 50.1293 20.7194C49.5048 20.6891 49.3373 20.9936 49.2916 21.9532C49.2764 22.4253 49.1698 22.8974 49.0327 23.339C48.8195 24.0244 48.4996 24.6792 48.3169 25.3646C47.9666 26.6593 47.6163 27.9536 47.4183 29.2788C47.266 30.2534 47.4792 31.213 48.393 31.7916C49.3221 32.3705 50.2358 32.1267 51.0583 31.5175C51.5152 31.1824 51.9417 30.7712 52.4594 30.3449C51.972 31.8222 51.5304 33.2233 51.043 34.6092C50.9668 34.8072 50.708 34.9748 50.4947 35.0813C49.3221 35.7211 48.0732 36.2541 46.9614 37.0002C44.4637 38.6908 42.7123 40.9449 42.1031 43.9605C41.829 45.2854 42.0726 46.4886 43.1844 47.3567C44.3267 48.2551 45.5755 48.118 46.7939 47.5241C47.9818 46.9454 48.8195 45.9859 49.6114 44.9656C51.2107 42.8941 52.1397 40.4879 52.9316 38.0207C53.0839 37.5485 53.3122 37.3202 53.7997 37.2135C56.541 36.6651 59.2671 36.0865 62.0085 35.5382C62.9071 35.3555 63.8208 35.2337 64.7804 35.0813C64.7957 35.4011 64.7498 35.6449 64.826 35.8276C64.9784 36.1627 65.1611 36.6195 65.4352 36.711C65.7094 36.8022 66.1968 36.6042 66.4404 36.3759C66.7146 36.1171 66.8973 35.6905 66.9887 35.2946C67.0802 34.868 67.2932 34.731 67.6741 34.6701C70.1716 34.3503 72.6541 34.0305 75.1519 33.6955C76.6292 33.4975 78.1218 33.3298 79.5838 33.0557C80.3454 32.9186 80.589 32.2485 80.2845 31.548C80.0865 30.9997 79.6753 30.7561 79.127 30.8017ZM68.7858 26.7049C69.2427 24.9992 69.6692 23.2781 70.2175 21.6028C70.4155 21.0242 70.857 20.4758 71.3139 20.0343C71.8319 19.5012 72.3649 19.6839 72.5476 20.415C72.6391 20.7956 72.6694 21.1765 72.7 21.3896C72.6238 23.141 72.1517 24.6336 71.4663 26.0347C71.055 26.8572 70.4611 27.5121 69.395 27.4206C68.9535 27.375 68.6487 27.1923 68.7858 26.7049ZM63.7447 21.4657C63.1813 23.3696 62.5568 25.2581 61.9476 27.1314C61.8714 27.375 61.6887 27.5882 61.5213 27.7709C61.0642 28.2584 60.4094 28.1975 60.1352 27.6035C59.9219 27.1314 59.8307 26.5831 59.7392 26.2174C59.9831 24.3138 60.3637 22.6538 61.704 21.4201C62.039 21.1003 62.4806 20.8718 62.9224 20.7044C63.4402 20.5064 63.9123 20.9174 63.7447 21.4657ZM46.8244 44.1735C46.5197 44.5238 46.1542 44.8589 45.743 45.1025C45.4994 45.2396 45.0272 45.331 44.8597 45.1939C44.6465 45.0265 44.5094 44.5694 44.5703 44.2955C44.7378 43.6557 44.9663 43.0162 45.3014 42.4373C46.3675 40.564 47.9209 39.2085 50.0531 38.2339C49.2154 40.4879 48.2712 42.4679 46.8244 44.1735ZM77.7562 24.39C77.8324 23.9941 78.0303 23.8111 78.4721 23.7199C80.9697 23.2019 82.8888 21.1765 83.3304 18.7092C83.6045 17.1405 82.6908 16.0135 81.1068 15.9526C80.2387 15.9221 79.4773 16.181 78.8375 16.775C76.3247 19.09 75.3499 22.0597 75.091 25.3343C75.1519 25.8824 75.1825 26.4004 75.2587 26.9181C75.5631 28.6999 76.949 29.5986 78.6852 29.1568C80.1625 28.7761 81.32 27.8927 82.3558 26.7963C83.0409 26.0653 83.1324 25.7303 82.7211 24.8316C82.3861 24.0853 82.0816 24.07 81.4877 24.6489C80.9241 25.2123 80.3148 25.7303 79.66 26.1871C79.1726 26.5222 78.5634 26.7505 78.0151 26.3242C77.4517 25.8977 77.5888 25.2428 77.665 24.6336C77.68 24.5574 77.7411 24.4813 77.7562 24.39ZM79.8733 18.7397C80.1016 18.3894 80.5434 18.0543 80.8935 18.3589C81.1068 18.5417 81.1526 19.1356 81.0459 19.4554C80.6196 20.6129 79.6753 21.2069 78.533 21.5419C78.4569 21.481 78.3807 21.4354 78.3045 21.3745C78.8223 20.4911 79.3097 19.6078 79.8733 18.7397Z" fill="#5F0B72"/>
<path d="M97.9723 12C92.9009 12 88.7887 16.1121 88.7887 21.1836C88.7887 23.6052 89.733 25.7983 91.2559 27.4431L91.0429 31.3267C91.0276 31.677 91.4235 31.9055 91.713 31.7075L94.6065 29.7276C95.6575 30.1388 96.7845 30.3672 97.9723 30.3672C103.044 30.3672 107.156 26.2552 107.156 21.1836C107.156 16.1121 103.044 12 97.9723 12ZM98.6425 24.8236C98.4139 25.2195 98.0789 25.5241 97.6829 25.7373C97.2869 25.9353 96.7998 26.042 96.2514 26.042C95.3833 26.042 94.6827 25.7831 94.1649 25.2652C93.6472 24.7474 93.373 24.0621 93.3577 23.194C93.3577 23.194 93.3424 23.0112 93.4642 22.8741C93.571 22.7675 93.7081 22.7066 93.906 22.6914C94.1343 22.6914 94.3173 22.7371 94.4238 22.8437C94.5152 22.9351 94.5456 23.0417 94.5303 23.1026C94.5761 23.4833 94.6674 23.7879 94.8045 24.0012C94.9415 24.2144 95.1395 24.3819 95.3984 24.519C95.6575 24.656 95.962 24.717 96.297 24.717C96.7692 24.717 97.1348 24.6104 97.3937 24.3971C97.6373 24.1839 97.7591 23.9098 97.7591 23.5747C97.7591 23.3767 97.7135 23.2092 97.622 23.0569C97.5308 22.9198 97.3937 22.798 97.226 22.7066C97.0281 22.6 96.5712 22.4477 95.8858 22.2497C95.231 22.0669 94.7894 21.869 94.5 21.6862C94.2105 21.4882 93.9822 21.2293 93.8298 20.9247C93.6622 20.6201 93.5863 20.2698 93.5863 19.8891C93.5863 19.2037 93.8146 18.6402 94.2714 18.1986C94.7283 17.7569 95.3528 17.5437 96.1144 17.5437C96.6321 17.5437 97.1042 17.6503 97.4849 17.8483C97.8809 18.0463 98.2009 18.3509 98.4139 18.7316C98.6272 19.1123 98.749 19.554 98.7643 20.0718C98.7643 20.0871 98.7795 20.2698 98.6425 20.4221C98.5816 20.4983 98.4445 20.5897 98.2159 20.5897C97.9876 20.6049 97.8049 20.544 97.6829 20.4374C97.5611 20.3155 97.5458 20.1784 97.5458 20.1632C97.5002 19.7063 97.3631 19.3713 97.1348 19.1581C96.9063 18.9448 96.5559 18.8382 96.1144 18.8382C95.6575 18.8382 95.3224 18.9296 95.0939 19.1276C94.8806 19.3103 94.7741 19.5388 94.7741 19.8281C94.7741 20.1023 94.8503 20.2851 95.0024 20.4374C95.1245 20.544 95.429 20.7115 96.2209 20.9247C96.891 21.1075 97.3478 21.2598 97.6373 21.3968C98.0638 21.6101 98.3989 21.8994 98.6272 22.2497C98.8557 22.6 98.9622 23.0264 98.9622 23.5138C98.9928 23.9859 98.871 24.4276 98.6425 24.8236ZM104.11 18.9144L100.561 25.3718C100.455 25.5698 100.226 25.7069 99.998 25.7069C99.8912 25.7069 99.7847 25.6764 99.6932 25.6307C99.3887 25.4632 99.267 25.0672 99.4344 24.7626L102.983 18.3052C103.151 18.0006 103.547 17.8787 103.851 18.0463C104.156 18.2138 104.278 18.6098 104.11 18.9144Z" fill="#01D0B5"/>
</svg>
