<?xml version="1.0" standalone="no"?>
<!DOCTYPE svg PUBLIC "-//W3C//DTD SVG 20010904//EN"
 "http://www.w3.org/TR/2001/REC-SVG-20010904/DTD/svg10.dtd">
<svg version="1.0" xmlns="http://www.w3.org/2000/svg"
 width="180.000000pt" height="180.000000pt" viewBox="0 0 180.000000 180.000000"
 preserveAspectRatio="xMidYMid meet">
<metadata>
Created by potrace 1.14, written by Peter Selinger 2001-2017
</metadata>
<g transform="translate(0.000000,180.000000) scale(0.100000,-0.100000)"
fill="#000000" stroke="none">
<path d="M755 1596 c-265 -61 -464 -249 -541 -511 -19 -63 -25 -243 -12 -320
26 -148 139 -332 260 -424 73 -54 184 -108 271 -131 107 -27 275 -21 381 14
220 74 388 242 462 461 33 98 41 253 19 356 -57 267 -251 474 -511 544 -82 23
-254 28 -329 11z m332 -129 c104 -36 158 -70 240 -152 120 -122 174 -264 168
-440 -6 -158 -62 -284 -179 -400 -128 -126 -300 -189 -472 -170 l-64 7 0 294
c0 327 3 348 62 384 46 28 93 23 134 -15 78 -73 36 -199 -68 -208 l-33 -3 -2
-157 c-1 -114 2 -157 10 -158 109 -9 243 46 323 133 79 86 113 167 119 291 14
275 -231 495 -499 446 -182 -33 -326 -187 -351 -376 -2 -16 -4 -124 -4 -242
l-1 -215 -35 40 c-19 21 -51 71 -70 110 -169 341 18 744 392 844 97 26 234 21
330 -13z"/>
</g>
</svg>
