<svg width="150" height="60" viewBox="0 0 150 60" fill="none" xmlns="http://www.w3.org/2000/svg">
<path d="M77.1745 10.0001H76.1042V50.0001H77.1745V42.3163H90.8408V37.662H80.3029V32.2614H89.3178V27.5632H80.3029V22.3821H90.8408V17.684H77.1745V10.0001Z" fill="#6AB023"/>
<path d="M34.6114 32.7884L30.742 26.0705L25.7612 17.772L25.6789 17.6841H21.5625V42.3164H26.1317V27.1682L29.5482 33.0519L35.0642 42.3164H39.2217V17.6841H34.6114V32.7884Z" fill="white"/>
<path d="M41.7738 42.3164H56.922V37.6622H46.3841V32.2615H55.3989V27.5634H46.3841V22.3823H56.922V17.6841H41.7738V42.3164Z" fill="white"/>
<path d="M58.7745 22.4262H64.0846V42.3164H68.695V22.4262H73.9227V17.6841H58.7745V22.4262Z" fill="white"/>
<path d="M106.195 32.8323L102.326 26.1144L97.3448 17.8158L97.2625 17.728H93.1461V42.3603H97.7153V27.2121L101.132 33.0958L106.648 42.3603H110.805V17.728H106.195V32.8323Z" fill="#6AB023"/>
<path d="M112.699 17.728V22.4701H117.968V42.3603H122.578V22.4701H127.847V17.728H112.699Z" fill="#6AB023"/>
</svg>
