<svg width="120" height="48" viewBox="0 0 120 48" fill="none" xmlns="http://www.w3.org/2000/svg">
<path d="M50.4814 20.9303C50.1555 20.9303 49.8296 20.993 49.5288 21.1058C49.2154 21.2186 48.9396 21.3815 48.689 21.5946C48.4508 21.8077 48.2503 22.0709 48.0998 22.3717C47.9494 22.6726 47.8742 23.0235 47.8742 23.4246C47.8742 23.8132 47.9494 24.1767 48.0998 24.4775C48.2503 24.7783 48.4383 25.0416 48.689 25.2546C48.9271 25.4677 49.2154 25.6307 49.5288 25.7435C49.8421 25.8563 50.1555 25.919 50.4814 25.919C50.8073 25.919 51.1332 25.8563 51.434 25.7435C51.7473 25.6307 52.0231 25.4677 52.2738 25.2546C52.5119 25.0416 52.7125 24.7783 52.8629 24.4775C53.0133 24.1767 53.0885 23.8257 53.0885 23.4246C53.0885 23.0361 53.0133 22.6851 52.8629 22.3717C52.7125 22.0709 52.5119 21.8077 52.2738 21.5946C52.0356 21.3815 51.7473 21.2186 51.434 21.1058C51.1332 20.993 50.8073 20.9303 50.4814 20.9303ZM50.4814 27.3479C49.8923 27.3479 49.3282 27.2727 48.8018 27.1348C48.2753 26.9844 47.8116 26.7462 47.4105 26.4203C47.0219 26.0944 46.7085 25.6683 46.4704 25.1794C46.2448 24.6781 46.132 24.1015 46.132 23.4372C46.132 22.7728 46.2448 22.1837 46.4704 21.6824C46.696 21.181 47.0094 20.7673 47.4105 20.4414C47.799 20.1156 48.2628 19.8649 48.7892 19.7019C49.3157 19.539 49.8797 19.4512 50.4688 19.4512C51.058 19.4512 51.622 19.539 52.1484 19.7019C52.6749 19.8649 53.1387 20.1156 53.5272 20.4414C53.9158 20.7673 54.2417 21.1935 54.4673 21.6824C54.6929 22.1837 54.8057 22.7728 54.8057 23.4372C54.8057 24.1015 54.6929 24.6906 54.4673 25.1794C54.2417 25.6808 53.9283 26.0944 53.5272 26.4203C53.1387 26.7462 52.6749 26.9844 52.1359 27.1348C51.6345 27.2727 51.0705 27.3479 50.4814 27.3479Z" fill="white"/>
<path d="M67.29 20.9303C66.9641 20.9303 66.6382 20.993 66.3374 21.1058C66.024 21.2186 65.7483 21.3815 65.4976 21.5946C65.2594 21.8077 65.0589 22.0709 64.9085 22.3717C64.758 22.6726 64.6828 23.0235 64.6828 23.4246C64.6828 23.8257 64.758 24.1767 64.9085 24.4775C65.0589 24.7783 65.2469 25.0416 65.4976 25.2546C65.7357 25.4677 66.024 25.6307 66.3374 25.7435C66.6507 25.8563 66.9766 25.919 67.29 25.919C67.6159 25.919 67.9418 25.8563 68.2426 25.7435C68.556 25.6307 68.8317 25.4677 69.0824 25.2546C69.3205 25.0416 69.5211 24.7783 69.6715 24.4775C69.8219 24.1767 69.8971 23.8257 69.8971 23.4246C69.8971 23.0235 69.8219 22.6851 69.6715 22.3717C69.5211 22.0709 69.3205 21.8077 69.0824 21.5946C68.8442 21.3815 68.556 21.2186 68.2426 21.1058C67.9418 20.993 67.6159 20.9303 67.29 20.9303ZM67.29 27.3479C66.7009 27.3479 66.1368 27.2727 65.6104 27.1348C65.0839 26.9844 64.6202 26.7462 64.2191 26.4203C63.8305 26.0944 63.5171 25.6683 63.279 25.1794C63.0534 24.6781 62.928 24.1015 62.928 23.4372C62.928 22.7728 63.0408 22.1837 63.279 21.6824C63.5046 21.181 63.818 20.7673 64.2191 20.4414C64.6076 20.1156 65.0714 19.8649 65.5978 19.7019C66.1243 19.539 66.6883 19.4512 67.2774 19.4512C67.8666 19.4512 68.4306 19.539 68.9571 19.7019C69.4835 19.8649 69.9473 20.1156 70.3358 20.4414C70.7244 20.7673 71.0503 21.1935 71.2759 21.6824C71.5015 22.1837 71.6143 22.7728 71.6143 23.4372C71.6143 24.1015 71.5015 24.6906 71.2759 25.1794C71.0503 25.6808 70.7369 26.0944 70.3358 26.4203C69.9473 26.7462 69.4835 26.9844 68.9445 27.1348C68.4557 27.2727 67.8916 27.3479 67.29 27.3479Z" fill="white"/>
<path d="M43.1739 28.2127L36.9694 21.0431V28.2127H35.0893V18.1476H37.0572L43.0235 25.0415V18.1476H44.9036V28.2127H43.1739Z" fill="white"/>
<path d="M59.6943 27.2852H58.0523L54.6931 19.5389H56.5607L58.8795 24.9287L61.1858 19.5389H63.0535L59.6943 27.2852Z" fill="white"/>
<path d="M92.647 27.2852V21.018H89.9396V19.5389H97.0967V21.018H94.3893V27.2852H92.647Z" fill="white"/>
<path d="M100.155 19.5389H98.3878V27.2852H100.155V19.5389Z" fill="white"/>
<path d="M87.6082 23.926L86.5428 21.4316L85.4774 23.926H87.6082ZM89.0497 27.2852L88.2475 25.405H84.8632L84.061 27.2852H82.3187L85.7406 19.5389H87.3701L90.792 27.2852H89.0497Z" fill="white"/>
<path d="M107.174 28.2754C106.435 28.2754 105.708 28.1751 105.018 27.9746C104.329 27.774 103.715 27.4481 103.188 27.0219C102.662 26.5958 102.236 26.0568 101.935 25.4176C101.622 24.7908 101.471 24.0262 101.471 23.1739C101.471 22.3341 101.622 21.582 101.935 20.9428C102.236 20.3035 102.662 19.752 103.188 19.3259C103.715 18.8997 104.329 18.5613 105.018 18.3482C105.708 18.1351 106.422 18.0223 107.174 18.0223C108.691 18.0223 110.095 18.5236 111.01 18.9122C111.11 18.9624 111.724 19.2256 111.724 19.2256L110.772 20.8174L110.634 20.7297C109.694 20.1657 108.628 19.8022 107.651 19.6893C107.475 19.6643 107.325 19.6643 107.174 19.6643H107.099H107.049C106.598 19.6768 106.147 19.752 105.733 19.8899C105.282 20.0403 104.881 20.2659 104.542 20.5668C104.204 20.855 103.928 21.2311 103.727 21.6447C103.527 22.0709 103.427 22.5597 103.427 23.1112C103.427 23.6627 103.527 24.1516 103.727 24.5777C103.928 25.0039 104.204 25.3674 104.542 25.6557C104.881 25.944 105.282 26.1696 105.733 26.3326C106.184 26.483 106.673 26.5582 107.174 26.5582C108.791 26.5582 110.145 25.8187 110.997 25.1919L111.148 25.0917L112 26.5582L111.875 26.6459C110.809 27.3228 109.18 28.1626 107.488 28.2629C107.375 28.2629 107.275 28.2754 107.174 28.2754Z" fill="white"/>
<path d="M79.6363 19.5389L77.1169 24.1391L74.585 19.5389H72.8803V27.2852H74.422V22.472L77.1169 27.3102L79.8118 22.472V27.2852H81.3535V19.5389H79.6363Z" fill="white"/>
<path d="M29.4271 13.9733C28.7028 12.8526 27.2543 12.0673 24.9824 11.5794C23.2365 11.1982 21.0485 11 18.6394 11C16.2378 11 14.0422 11.1982 12.3039 11.5794C10.0397 12.075 8.5835 12.8526 7.86686 13.9733C6.67754 15.8106 6.95962 18.4866 7.2722 21.5895C7.33319 22.1613 7.39418 22.7483 7.43992 23.3201C7.53903 24.4637 7.76775 26.7203 8.18706 28.8931C8.79697 32.057 9.45262 33.1701 9.8948 33.7342C11.7779 36.1129 17.0688 36.2958 18.647 36.2958C20.2251 36.2958 25.5161 36.1129 27.3991 33.7342C27.8413 33.1701 28.5046 32.0646 29.1069 28.8931C29.5262 26.7127 29.7549 24.4637 29.854 23.3201C29.8998 22.7483 29.9608 22.1613 30.0218 21.5895C30.3343 18.4866 30.6088 15.803 29.4271 13.9733ZM29.145 21.498C29.084 22.0698 29.023 22.6644 28.9773 23.2439C28.8782 24.3722 28.6571 26.5907 28.2454 28.733C27.6736 31.7139 27.0942 32.705 26.7054 33.1929C25.0281 35.32 19.6914 35.4267 18.6394 35.4267C17.5873 35.4267 12.2506 35.32 10.5733 33.1929C10.1845 32.705 9.6051 31.7063 9.03331 28.733C8.62162 26.5907 8.40053 24.3798 8.30142 23.2439C8.24805 22.6644 8.19469 22.0698 8.13369 21.498C7.82874 18.5552 7.56953 16.0165 8.59113 14.4383C9.18579 13.5235 10.459 12.8602 12.4869 12.4257C14.1718 12.0597 16.2988 11.8691 18.6394 11.8691C20.9799 11.8691 23.1069 12.0597 24.7918 12.4257C26.8197 12.8678 28.0929 13.5235 28.6876 14.4383C29.7092 16.0241 29.45 18.5628 29.145 21.498ZM18.647 13.1194C23.1679 13.1194 26.835 13.8666 27.6507 15.1245C28.6037 16.6035 28.0243 19.9046 27.7422 23.1447C27.4601 26.3849 26.7816 31.0964 25.7372 32.4306C24.8223 33.5894 21.5517 34.184 18.647 34.184C15.7499 34.184 12.4717 33.5818 11.5568 32.4306C10.5047 31.104 9.82619 26.3849 9.55173 23.1447C9.27727 19.9046 8.69024 16.6035 9.64322 15.1245C10.459 13.8666 14.126 13.1194 18.647 13.1194ZM11.9761 17.6175C11.8541 17.6861 11.8008 17.9072 11.8008 17.9072L11.6712 18.479C11.6712 18.479 11.6254 18.6238 11.7093 18.7992C11.8008 18.9745 12.3726 19.0812 12.3726 19.0812C12.3726 19.0812 13.3713 19.2337 13.7753 19.7293C14.1794 20.2248 14.0193 20.9033 14.0193 20.9033L12.9291 26.2476C12.9291 26.2476 12.8224 26.7661 12.5479 27.0176C12.2811 27.2616 11.8389 27.2769 11.8389 27.2769C11.8389 27.2769 11.5797 27.2845 11.4119 27.3531C11.2671 27.4141 11.2214 27.6504 11.2214 27.6504L11.1527 28.0011C11.1527 28.0011 11.1146 28.146 11.1985 28.2756C11.2823 28.4052 11.5187 28.4357 11.5187 28.4357L17.0307 28.4738C17.0307 28.4738 17.1984 28.4662 17.2899 28.3747C17.3814 28.2832 17.4043 28.0926 17.4043 28.0926L17.4958 27.5894C17.4958 27.5894 17.5339 27.437 17.4577 27.3455C17.3662 27.2387 17.2899 27.2464 17.0383 27.1854C16.7791 27.1244 16.6267 27.0481 16.3751 26.8423C16.0625 26.5831 16.1692 26.0875 16.1692 26.0875L16.6495 23.4116C16.6495 23.4116 16.7105 23.2134 16.8401 23.221C17.0307 23.2286 17.0917 23.404 17.0917 23.404L19.7219 28.1078C19.7219 28.1078 19.8134 28.2679 19.9507 28.3747C20.0879 28.4814 20.4005 28.489 20.4005 28.489L24.8375 28.4509C24.8375 28.4509 25.0586 28.4585 25.1806 28.3594C25.3255 28.2375 25.3636 28.0469 25.3636 28.0469L25.4474 27.658C25.4474 27.658 25.5084 27.4751 25.4246 27.2997C25.3255 27.0939 24.9443 27.0481 24.5097 26.9185C24.1895 26.8194 23.7702 26.5907 23.6253 26.3772C23.5262 26.2248 23.6253 25.9122 23.6253 25.9122L25.1044 19.8284C25.1044 19.8284 25.1501 19.5768 25.4017 19.3176C25.6304 19.0812 26.2556 18.9516 26.2556 18.9516C26.2556 18.9516 26.4157 18.9211 26.5148 18.8297C26.5834 18.761 26.6139 18.6162 26.6139 18.6162L26.7816 17.9605C26.7816 17.9605 26.8274 17.7928 26.7283 17.6785C26.6444 17.5794 26.4081 17.5794 26.4081 17.5794H21.3382C21.3382 17.5794 21.1705 17.5717 21.0104 17.7013C20.8655 17.8233 20.8426 17.9453 20.8426 17.9453L20.7207 18.4942C20.7207 18.4942 20.6825 18.6314 20.7283 18.7382C20.7893 18.8754 20.9265 18.883 20.9265 18.883L21.14 18.9211C21.14 18.9211 21.5364 18.9974 21.7423 19.2032C21.9481 19.4091 21.849 19.9427 21.849 19.9427L21.1095 23.4878L18.4259 18.3722C18.4259 18.3722 18.3496 18.1359 18.0523 17.8462C17.7626 17.5565 17.3128 17.5794 17.3128 17.5794H12.3039C12.3116 17.5412 12.0981 17.5489 11.9761 17.6175Z" fill="white"/>
</svg>
