<svg width="150" height="60" viewBox="0 0 150 60" fill="none" xmlns="http://www.w3.org/2000/svg">
<path d="M15.5332 40.9656V22.625L31.0154 30.3661L22.2462 34.7507V30.3661C22.2462 30.1341 22.2005 29.9044 22.1117 29.6901C22.0229 29.4757 21.8928 29.2809 21.7288 29.1169C21.5647 28.9529 21.37 28.8228 21.1557 28.734C20.9413 28.6452 20.7116 28.5995 20.4796 28.5995C20.2476 28.5995 20.0179 28.6452 19.8036 28.734C19.5892 28.8228 19.3945 28.9529 19.2305 29.1169C19.0664 29.2809 18.9363 29.4757 18.8475 29.6901C18.7587 29.9044 18.713 30.1341 18.713 30.3661V37.6091C18.713 37.9102 18.79 38.2063 18.9367 38.4693C19.0833 38.7323 19.2947 38.9535 19.5509 39.1118C19.807 39.2701 20.0994 39.3603 20.4002 39.3739C20.701 39.3874 21.0003 39.3238 21.2696 39.1891L35.7556 31.9462C36.049 31.7994 36.296 31.5739 36.4684 31.2948C36.6408 31.0157 36.7321 30.6941 36.7321 30.3661C36.7321 30.038 36.6408 29.7164 36.4684 29.4373C36.296 29.1582 36.049 28.9327 35.7556 28.786L14.5566 18.1865C14.2873 18.0518 13.988 17.9883 13.6872 18.0018C13.3864 18.0153 13.094 18.1055 12.8379 18.2638C12.5817 18.4221 12.3703 18.6433 12.2236 18.9063C12.077 19.1693 12 19.4655 12 19.7666V40.9656C12 41.1976 12.0457 41.4273 12.1345 41.6416C12.2233 41.856 12.3534 42.0507 12.5174 42.2148C12.6815 42.3788 12.8762 42.5089 13.0906 42.5977C13.3049 42.6865 13.5346 42.7322 13.7666 42.7322C13.9986 42.7322 14.2283 42.6865 14.4427 42.5977C14.657 42.5089 14.8517 42.3788 15.0158 42.2148C15.1798 42.0507 15.3099 41.856 15.3987 41.6416C15.4875 41.4273 15.5332 41.1976 15.5332 40.9656Z" fill="#FF002A"/>
<path d="M55.4392 26.5092C55.2392 26.035 54.9035 25.6302 54.4743 25.3458C54.0451 25.0614 53.5417 24.9098 53.0267 24.9102H45.825C45.6817 24.9102 45.5399 24.9384 45.4075 24.9932C45.2751 25.048 45.1551 25.1284 45.0536 25.2298C44.9521 25.3311 44.8717 25.4514 44.8172 25.5837C44.7623 25.7161 44.7339 25.858 44.7339 26.0013V34.7305C44.7339 35.0199 44.8488 35.2975 45.0536 35.5021C45.2584 35.7067 45.5359 35.8217 45.825 35.8217C46.1146 35.8217 46.3921 35.7067 46.5969 35.5021C46.8013 35.2975 46.9162 35.0199 46.9162 34.7305V32.1845L53.0267 32.1845C53.3707 32.1847 53.7112 32.1171 54.0291 31.9856C54.347 31.8541 54.6358 31.6612 54.8791 31.418C55.122 31.1748 55.3152 30.886 55.4465 30.5682C55.5781 30.2503 55.6458 29.9097 55.6454 29.5658V27.5289C55.6458 27.1786 55.5756 26.8319 55.4392 26.5092ZM53.4631 29.5658C53.4635 29.624 53.4519 29.6817 53.4293 29.7353C53.3958 29.8136 53.3406 29.8806 53.27 29.9283C53.2351 29.9519 53.1972 29.9702 53.1569 29.9828C53.1147 29.9958 53.071 30.0024 53.0267 30.0022H46.9162V27.0924H53.0267C53.0849 27.0922 53.1427 27.1037 53.1962 27.1263C53.2747 27.1598 53.3416 27.2151 53.3893 27.2856C53.4129 27.3204 53.4311 27.3586 53.4438 27.3987C53.4569 27.4409 53.4635 27.4848 53.4631 27.5289V29.5658Z" fill="white"/>
<path d="M107.667 29.7227C107.235 29.4303 106.725 29.2743 106.202 29.2748H99.8009C99.7427 29.2751 99.6852 29.2635 99.6314 29.2409C99.5532 29.2075 99.4863 29.1521 99.4383 29.0816C99.415 29.0467 99.3964 29.0086 99.3841 28.9685C99.371 28.9263 99.3644 28.8824 99.3644 28.8383V27.5289C99.3641 27.4707 99.3757 27.413 99.3983 27.3594C99.4317 27.281 99.487 27.214 99.5576 27.1663C99.5925 27.1428 99.6307 27.1244 99.6707 27.1119C99.7129 27.0989 99.7569 27.0923 99.8009 27.0924H107.366C107.656 27.0924 107.933 26.9775 108.138 26.7729C108.342 26.5682 108.457 26.2907 108.457 26.0013C108.457 25.7119 108.342 25.4344 108.138 25.2298C107.933 25.0251 107.656 24.9102 107.366 24.9102H99.8009C99.4572 24.9099 99.1164 24.9775 98.7985 25.1091C98.4806 25.2406 98.1918 25.4335 97.9488 25.6767C97.7055 25.9199 97.5127 26.2087 97.3811 26.5265C97.2498 26.8443 97.1821 27.185 97.1821 27.5289V28.8383C97.1821 29.1823 97.2498 29.5229 97.3811 29.8407C97.5127 30.1585 97.7055 30.4473 97.9488 30.6905C98.1918 30.9338 98.4806 31.1266 98.7985 31.2582C99.1164 31.3897 99.4572 31.4573 99.8009 31.4571H106.202C106.261 31.4568 106.318 31.4683 106.372 31.4909C106.45 31.5244 106.517 31.5797 106.565 31.6503C106.589 31.6851 106.607 31.7232 106.62 31.7633C106.633 31.8055 106.639 31.8494 106.639 31.8935V33.2029C106.639 33.2612 106.628 33.3188 106.605 33.3725C106.572 33.4508 106.516 33.5178 106.446 33.5655C106.411 33.5891 106.373 33.6074 106.333 33.6199C106.29 33.633 106.247 33.6395 106.202 33.6394H98.637C98.3478 33.6394 98.0703 33.7544 97.8656 33.959C97.6608 34.1636 97.5458 34.4411 97.5458 34.7305C97.5458 35.0199 97.6608 35.2975 97.8656 35.5021C98.0703 35.7067 98.3478 35.8217 98.637 35.8217L106.202 35.8217C106.546 35.8219 106.887 35.7543 107.205 35.6228C107.523 35.4912 107.811 35.2984 108.055 35.0551C108.298 34.8119 108.491 34.5232 108.622 34.2053C108.754 33.8875 108.821 33.5469 108.821 33.2029V31.8935C108.821 31.4649 108.716 31.0427 108.515 30.6641C108.314 30.2856 108.023 29.9623 107.667 29.7227Z" fill="white"/>
<path d="M94.5546 25.1802C94.4466 25.0858 94.3215 25.0136 94.1854 24.9677C94.0498 24.9218 93.9065 24.9031 93.7635 24.9126C93.6206 24.9221 93.4809 24.9597 93.3522 25.0233C93.2238 25.0868 93.1092 25.175 93.015 25.2828L88.7439 30.1638L84.4731 25.2828C84.3789 25.175 84.2639 25.0868 84.1355 25.0233C84.0072 24.9597 83.8675 24.9221 83.7245 24.9126C83.5816 24.903 83.4379 24.9218 83.3023 24.9677C83.1666 25.0136 83.0411 25.0858 82.9335 25.1802C82.8254 25.2745 82.7374 25.3892 82.6738 25.5176C82.6101 25.6461 82.5726 25.7858 82.5632 25.9287C82.5537 26.0717 82.5723 26.2152 82.6181 26.3509C82.6643 26.4866 82.7363 26.612 82.8309 26.7199L87.6527 32.2308V34.7306C87.6527 35.02 87.7676 35.2975 87.9724 35.5021C88.1772 35.7067 88.4547 35.8217 88.7439 35.8217C89.0334 35.8217 89.3109 35.7067 89.5157 35.5021C89.7201 35.2975 89.835 35.02 89.835 34.7306V32.2308L94.6572 26.7199C94.8478 26.5021 94.9442 26.2175 94.9249 25.9287C94.9056 25.64 94.7725 25.3707 94.5546 25.1802Z" fill="white"/>
<path d="M123.129 26.5092C122.929 26.035 122.593 25.6302 122.164 25.3458C121.735 25.0614 121.231 24.9098 120.717 24.9102H114.315C113.971 24.9099 113.631 24.9775 113.313 25.1091C112.995 25.2406 112.706 25.4335 112.463 25.6767C112.22 25.9199 112.027 26.2087 111.895 26.5265C111.764 26.8443 111.696 27.185 111.697 27.5289V33.2029C111.696 33.5469 111.764 33.8875 111.895 34.2053C112.027 34.5232 112.22 34.8119 112.463 35.0552C112.706 35.2984 112.995 35.4913 113.313 35.6228C113.631 35.7543 113.971 35.8219 114.315 35.8217H120.717C121.06 35.8219 121.401 35.7543 121.719 35.6228C122.037 35.4913 122.326 35.2983 122.569 35.0551C122.812 34.8119 123.005 34.5232 123.137 34.2053C123.268 33.8875 123.336 33.5469 123.336 33.2029V27.5289C123.336 27.1786 123.266 26.8319 123.129 26.5092ZM121.153 33.2029C121.154 33.2612 121.142 33.3188 121.119 33.3725C121.086 33.4508 121.031 33.5178 120.96 33.5655C120.925 33.5891 120.887 33.6074 120.847 33.6199C120.805 33.633 120.761 33.6395 120.717 33.6394H114.315C114.257 33.6397 114.199 33.6282 114.146 33.6055C114.067 33.5721 114 33.5167 113.953 33.4462C113.929 33.4113 113.911 33.3733 113.898 33.3331C113.885 33.291 113.878 33.2471 113.879 33.2029V27.5289C113.878 27.4707 113.89 27.413 113.913 27.3594C113.946 27.281 114.001 27.214 114.072 27.1663C114.107 27.1428 114.145 27.1244 114.185 27.1119C114.227 27.0989 114.271 27.0923 114.315 27.0924H120.717C120.775 27.0922 120.832 27.1037 120.886 27.1263C120.964 27.1598 121.032 27.2151 121.079 27.2856C121.103 27.3205 121.121 27.3586 121.134 27.3987C121.147 27.4409 121.153 27.4848 121.153 27.5289V33.2029Z" fill="white"/>
<path d="M136.909 24.9102C136.766 24.9102 136.624 24.9384 136.491 24.9932C136.359 25.048 136.239 25.1284 136.137 25.2298C136.036 25.3311 135.956 25.4514 135.901 25.5838C135.846 25.7161 135.818 25.858 135.818 26.0013V32.2384L128.192 25.1995C128.036 25.0557 127.842 24.9603 127.633 24.9252C127.424 24.8901 127.209 24.9167 127.015 25.0018C126.82 25.0868 126.655 25.2267 126.539 25.4042C126.423 25.5817 126.361 25.7892 126.361 26.0013V34.7305C126.361 35.02 126.476 35.2975 126.681 35.5021C126.885 35.7067 127.163 35.8217 127.452 35.8217C127.742 35.8217 128.019 35.7067 128.224 35.5021C128.428 35.2975 128.543 35.02 128.543 34.7305V28.4935L136.169 35.5323C136.325 35.6762 136.519 35.7715 136.728 35.8066C136.937 35.8417 137.152 35.8152 137.346 35.7301C137.541 35.645 137.706 35.5052 137.822 35.3277C137.938 35.1501 138 34.9426 138 34.7305V26.0013C138 25.858 137.972 25.7161 137.917 25.5838C137.862 25.4514 137.782 25.3311 137.68 25.2298C137.579 25.1284 137.459 25.048 137.326 24.9932C137.194 24.9384 137.052 24.9102 136.909 24.9102Z" fill="white"/>
<path d="M67.2117 33.6394H60.6647V26.0013C60.6647 25.7119 60.5498 25.4344 60.3454 25.2298C60.1406 25.0251 59.8631 24.9102 59.5736 24.9102C59.2844 24.9102 59.0069 25.0251 58.8021 25.2298C58.5974 25.4344 58.4824 25.7119 58.4824 26.0013V34.7305C58.4824 35.0199 58.5974 35.2975 58.8021 35.5021C59.0069 35.7067 59.2844 35.8217 59.5736 35.8217H67.2117C67.5012 35.8217 67.7787 35.7067 67.9835 35.5021C68.1879 35.2975 68.3028 35.0199 68.3028 34.7305C68.3028 34.4412 68.1879 34.1636 67.9835 33.959C67.7787 33.7544 67.5012 33.6394 67.2117 33.6394Z" fill="white"/>
<path d="M82.0523 35.8219C81.8613 35.8221 81.6736 35.7722 81.5081 35.6772C81.3427 35.5822 81.2048 35.4453 81.1088 35.2803L76.9591 28.1669L72.8098 35.2803C72.7374 35.4041 72.6418 35.5125 72.5276 35.5992C72.4134 35.6859 72.2835 35.7493 72.1449 35.7858C72.0064 35.8222 71.862 35.8311 71.7198 35.8117C71.5779 35.7924 71.4411 35.7453 71.3175 35.6731C71.1935 35.6009 71.0851 35.505 70.9985 35.3909C70.9119 35.2769 70.8483 35.1468 70.8119 35.0082C70.7755 34.8697 70.7668 34.7253 70.7861 34.5833C70.8054 34.4413 70.8523 34.3045 70.9247 34.1808L76.0167 25.4515C76.1127 25.2868 76.2502 25.1501 76.4157 25.0551C76.5812 24.9601 76.7685 24.9102 76.9591 24.9102C77.1501 24.9102 77.3374 24.9601 77.5025 25.0551C77.668 25.1501 77.8055 25.2868 77.9019 25.4515L82.9939 34.1808C83.0903 34.3465 83.1416 34.5348 83.1423 34.7267C83.1431 34.9185 83.0932 35.1071 82.9976 35.2735C82.9023 35.44 82.7644 35.5783 82.5986 35.6745C82.4327 35.7708 82.2443 35.8216 82.0523 35.8219Z" fill="white"/>
</svg>
