<svg width="150" height="60" viewBox="0 0 150 60" fill="none" xmlns="http://www.w3.org/2000/svg">
<path d="M46.1649 24.303C44.5157 20.1067 37.6609 19.1953 30.2298 21.9081L26.9315 19.7676C25.8983 19.153 24.726 19.8947 24.6863 21.124V24.5786C18.2884 28.5418 14.5928 34.2429 16.1624 38.2485C17.9904 42.89 26.1964 43.5258 34.4619 39.6685C42.7474 35.8325 47.9928 28.9445 46.1649 24.303ZM27.925 22.4592L35.7932 27.5881C36.3694 27.9484 36.4488 28.8809 35.8329 29.3048L27.8654 34.3277C27.2494 34.688 26.4149 34.2641 26.4149 33.3528L26.3752 23.3917C26.4348 22.544 27.2296 22.0565 27.925 22.4592ZM23.7723 41.1521C20.176 40.8766 18.7256 38.4181 19.6793 35.0695C19.6793 35.6205 19.7587 36.1504 19.9574 36.659C21.3682 40.2408 27.6865 40.7282 34.0645 37.7399C34.2036 37.6763 34.3228 37.6127 34.4619 37.5491C30.8656 39.9652 26.8719 41.4064 23.7723 41.1521ZM38.6941 32.1023C35.4951 36.2987 29.7331 39.2023 25.8188 38.9056C21.9046 38.6088 21.3085 34.9423 24.5075 30.7459C24.5671 30.6612 24.6466 30.5764 24.7062 30.4916L24.726 35.7477C24.7062 37.0829 25.9579 37.7187 26.852 37.1889L38.5947 29.7922C39.5087 29.1776 39.4094 27.8 38.555 27.2702L33.8062 24.4302C35.0977 24.0275 36.3296 23.8368 37.4224 23.9216C41.2969 24.2395 41.893 27.8848 38.6941 32.1023ZM43.1249 26.0409C43.105 25.9985 43.105 25.9562 43.0851 25.8926C41.9526 23.0102 37.641 22.1413 32.6538 23.4553L31.8392 22.9254C34.2831 21.8234 36.727 21.2511 38.7735 21.4207C41.8135 21.675 43.3037 23.4765 43.1249 26.0409Z" fill="white"/>
<path d="M48.2511 24.0274C49.3638 23.9426 50.4169 23.8155 51.4302 23.6883C52.4435 23.5611 53.3972 23.3916 54.351 23.2008L53.5562 26.1256C54.351 25.0023 55.0861 24.1758 55.8014 23.6671C56.5167 23.1373 57.232 22.8829 58.0069 22.8829C59.06 22.8829 59.8746 23.222 60.4309 23.9002C61.0071 24.5784 61.2853 25.5745 61.2853 26.825C61.2853 27.8847 61.0866 29.0291 60.7091 30.1948C60.3117 31.3816 59.7554 32.4625 59.06 33.4798C58.2453 34.6667 57.3909 35.5568 56.477 36.129C55.563 36.7225 54.5894 37.0192 53.5363 37.0192C53.1191 37.0192 52.7217 36.9556 52.3442 36.8284C51.9667 36.7013 51.6488 36.5105 51.3308 36.2562L50.5162 39.4141C50.4566 39.6048 50.4169 39.8168 50.397 40.0075C50.3573 40.1983 50.3573 40.389 50.3573 40.6009C50.3573 40.9824 50.4566 41.2579 50.6752 41.4063C50.8937 41.5547 51.3308 41.6606 52.0064 41.703V42.4448H44.4958V41.6818C44.5157 41.6818 44.5555 41.6818 44.6151 41.6606C44.6548 41.6394 44.6945 41.6394 44.7144 41.6394C45.1913 41.6394 45.529 41.5123 45.7675 41.2579C46.0059 41.0036 46.2443 40.3466 46.5026 39.2657L49.5029 26.6766C49.5625 26.4859 49.6022 26.2739 49.6221 26.0832C49.642 25.8925 49.6618 25.7441 49.6618 25.6381C49.6618 25.299 49.5625 25.0659 49.3638 24.9387C49.1651 24.7904 48.7876 24.7268 48.2511 24.7268V24.0274ZM52.7416 30.3431L52.0263 33.0559C51.9269 33.4798 51.8474 33.8401 51.768 34.1792C51.7084 34.5183 51.6686 34.7726 51.6686 34.921C51.6686 35.2177 51.7481 35.4297 51.9071 35.5992C52.066 35.7688 52.2846 35.8535 52.5627 35.8535C52.98 35.8535 53.4171 35.5992 53.8741 35.1117C54.3311 34.6243 54.7483 33.9249 55.1656 32.9924C55.6623 31.8267 56.0796 30.6611 56.3975 29.4954C56.6955 28.3509 56.8743 27.4608 56.8743 26.8038C56.8743 26.3375 56.775 25.956 56.5962 25.6805C56.4174 25.405 56.1789 25.2566 55.9008 25.2566C55.2848 25.2566 54.7086 25.6805 54.192 26.4859C53.6754 27.3548 53.1787 28.6264 52.7416 30.3431Z" fill="white"/>
<path d="M62.0405 17.0758C63.173 16.9911 64.2459 16.8639 65.2791 16.6943C66.3123 16.546 67.3058 16.3552 68.2198 16.1433L64.087 33.0347C64.0671 33.1195 64.0274 33.2467 63.9876 33.395C63.928 33.607 63.9082 33.7553 63.9082 33.8189C63.9082 34.0097 63.9479 34.1792 64.0274 34.2852C64.1069 34.3912 64.2261 34.4547 64.3652 34.4547C64.5042 34.4547 64.6831 34.3488 64.8817 34.1368C65.0804 33.9249 65.4381 33.3739 65.9944 32.4625L66.6501 32.9712C65.8156 34.4123 65.0208 35.4508 64.2658 36.0867C63.5108 36.7225 62.7359 37.0616 61.9212 37.0616C61.2059 37.0616 60.6496 36.8496 60.2522 36.4469C59.8548 36.0231 59.676 35.4296 59.676 34.6455C59.676 34.264 59.8747 33.2467 60.2721 31.5936L60.3118 31.424L63.0538 20.4245C63.0737 20.3185 63.1134 20.1701 63.1531 19.9794C63.332 19.2588 63.4114 18.7925 63.4114 18.5806C63.4114 18.3051 63.332 18.0931 63.1333 17.966C62.9544 17.8388 62.6564 17.7752 62.2789 17.7752H62.0405V17.0758Z" fill="white"/>
<path d="M79.9424 23.3491L77.7369 31.6994V31.7206C77.3991 33.0135 77.2402 33.7552 77.2402 33.9672C77.2402 34.1579 77.2799 34.3275 77.3594 34.4546C77.4389 34.5818 77.5183 34.6242 77.6574 34.6242C78.0151 34.6242 78.472 34.1791 79.0284 33.289C79.2072 33.0346 79.3264 32.8439 79.4258 32.6955L80.0616 33.2254C79.3463 34.5394 78.631 35.4931 77.8958 36.1077C77.1607 36.7224 76.3659 37.0191 75.5314 37.0191C74.836 37.0191 74.2995 36.8495 73.9419 36.5316C73.5644 36.1925 73.3855 35.7263 73.3855 35.1116C73.3855 34.9209 73.4054 34.6878 73.4451 34.4122C73.4849 34.1367 73.5246 33.7552 73.6041 33.3102C72.9286 34.5606 72.2133 35.5143 71.4384 36.1077C70.6635 36.7224 69.7892 37.0191 68.8156 37.0191C67.8222 37.0191 67.0473 36.7012 66.4711 36.0654C65.8949 35.4083 65.6167 34.5394 65.6167 33.4161C65.6167 32.1233 65.8949 30.7669 66.4512 29.3469C67.0075 27.9269 67.7427 26.6765 68.6765 25.5744C69.4117 24.7055 70.1667 24.0273 70.9615 23.561C71.7563 23.0948 72.5312 22.8616 73.2663 22.8616C73.9617 22.8616 74.5181 23.0312 74.9155 23.3915C75.3128 23.7518 75.591 24.2816 75.7102 25.0022L76.1076 23.3279L79.9424 23.3491ZM74.9751 25.8288C74.9751 25.4261 74.8956 25.1082 74.7168 24.8538C74.538 24.6207 74.3194 24.4936 74.0412 24.4936C73.6438 24.4936 73.2663 24.6843 72.9087 25.087C72.551 25.4897 72.1139 26.1679 71.6371 27.1004C71.0807 28.2237 70.6436 29.3045 70.3257 30.3854C70.0078 31.4663 69.8488 32.3776 69.8488 33.1406C69.8488 33.6069 69.9482 33.9672 70.1071 34.2215C70.286 34.4758 70.5244 34.603 70.8224 34.603C71.2595 34.603 71.7165 34.3275 72.1934 33.7764C72.6703 33.2254 73.1074 32.4412 73.5246 31.4451C73.9617 30.3218 74.3194 29.241 74.5777 28.2025C74.836 27.1852 74.9751 26.3798 74.9751 25.8288Z" fill="white"/>
<path d="M78.6707 24.4936V23.7306C79.7437 23.6034 80.8365 23.4551 81.9293 23.2855C83.0221 23.116 83.6181 23.0312 83.7175 23.0312C84.1546 23.0312 84.7308 25.0446 85.4461 29.0714C85.7243 30.6821 85.9627 31.975 86.1415 32.9287C86.976 31.1696 87.5522 29.898 87.8503 29.0926C88.1682 28.3084 88.3073 27.715 88.3073 27.3335C88.3073 27.0368 88.049 26.6765 87.5324 26.2738C87.0158 25.8712 86.7575 25.3837 86.7575 24.875C86.7575 24.2816 86.9363 23.7942 87.2939 23.4127C87.6516 23.0524 88.1284 22.8616 88.7245 22.8616C89.3007 22.8616 89.7776 23.0524 90.0955 23.4127C90.4134 23.773 90.5922 24.3028 90.5922 24.9598C90.5922 25.7864 90.2147 27.1216 89.4398 28.9443C88.6848 30.7669 87.6317 32.8227 86.3204 35.1116C84.8302 37.7397 83.4791 39.6259 82.2472 40.834C81.0352 42.042 79.843 42.6354 78.7303 42.6354C77.9753 42.6354 77.3991 42.4659 76.962 42.1268C76.5447 41.7877 76.3262 41.3002 76.3262 40.7068C76.3262 40.1558 76.505 39.7107 76.8825 39.3504C77.26 38.9901 77.717 38.8206 78.2932 38.8206C78.7303 38.8206 79.2271 39.0113 79.7238 39.3716C80.2404 39.7319 80.5782 39.9226 80.757 39.9226C81.055 39.9226 81.4127 39.6471 81.8101 39.1173C82.2074 38.5874 82.4061 38.0788 82.4061 37.5913C82.4061 37.231 82.3664 36.7859 82.3068 36.2349C82.2472 35.6839 82.1478 35.0057 82.0286 34.2003C81.7703 32.4836 81.512 30.9153 81.2339 29.5165C80.9756 28.1177 80.7173 26.9944 80.5186 26.1891C80.3199 25.4897 80.141 25.0446 79.9424 24.8327C79.7437 24.6207 79.4456 24.5147 78.9886 24.5147H78.9489C78.8496 24.4936 78.7502 24.4936 78.6707 24.4936Z" fill="white"/>
<path d="M95.8378 33.2679C95.0033 34.4759 94.1887 35.4085 93.3939 36.0443C92.5992 36.7013 91.8839 37.0192 91.2282 37.0192C90.6917 37.0192 90.2943 36.8284 89.9963 36.4893C89.6983 36.1291 89.5393 35.6628 89.5393 35.0694C89.5393 34.8574 89.5592 34.6243 89.5989 34.37C89.6387 34.1156 89.6983 33.8189 89.7777 33.501L92.1422 23.9002H89.6585L89.897 23.0737C90.9699 22.8406 91.9236 22.3107 92.7382 21.4842C93.5529 20.6576 94.3079 19.5343 94.9636 18.072H95.818L94.7053 22.8829H96.9902L96.7518 23.9002H94.4072L92.1422 33.1407C92.0826 33.3527 92.0428 33.5434 92.0229 33.713C92.0031 33.8825 91.9832 34.0309 91.9832 34.158C91.9832 34.4547 92.0428 34.6879 92.1819 34.8574C92.3011 35.027 92.4998 35.1118 92.7184 35.1118C93.0164 35.1118 93.3741 34.9422 93.7714 34.5607C94.1887 34.2004 94.7053 33.5858 95.3411 32.7592L95.8378 33.2679Z" fill="white"/>
<path d="M97.9439 31.1271C97.8644 31.4662 97.8048 31.8053 97.7651 32.1232C97.7253 32.4412 97.7055 32.7167 97.7055 32.971C97.7055 33.7764 97.8843 34.391 98.2817 34.8149C98.6592 35.2387 99.2155 35.5566 99.9507 35.5566C100.666 35.5566 101.5 35.1963 102.414 34.6877C103.328 34.179 104.381 33.4161 105.514 32.3776L106.11 33.3313C104.739 34.6029 103.468 35.5354 102.255 36.1501C101.063 36.7647 99.8712 37.0614 98.7188 37.0614C97.5862 37.0614 96.6921 36.7011 96.0762 36.0017C95.4404 35.3023 95.1423 34.3062 95.1423 33.0134C95.1423 31.7841 95.3808 30.5337 95.8775 29.2621C96.3742 27.9905 97.0299 26.8672 97.8843 25.8711C98.6989 24.9386 99.6129 24.218 100.567 23.7093C101.56 23.2219 102.554 22.9675 103.587 22.9675C104.54 22.9675 105.276 23.2007 105.832 23.6457C106.388 24.0908 106.666 24.7266 106.666 25.5108C106.666 26.952 105.852 28.1812 104.262 29.2409C102.653 30.2794 100.547 30.9152 97.9439 31.1271ZM98.1624 30.1098C99.9904 30.0251 101.54 29.4952 102.772 28.5627C104.024 27.609 104.64 26.5493 104.64 25.3412C104.64 24.9386 104.54 24.6418 104.342 24.4299C104.143 24.2392 103.845 24.1332 103.448 24.1332C102.335 24.1332 101.302 24.663 100.368 25.7227C99.4341 26.7824 98.6989 28.2448 98.1624 30.1098Z" fill="white"/>
<path d="M115.866 31.3179L115.826 33.1193C114.972 34.4334 114.038 35.4083 113.005 36.0441C111.991 36.6799 110.879 37.019 109.667 37.019C108.355 37.019 107.263 36.5527 106.448 35.6414C105.633 34.7301 105.216 33.522 105.216 32.0173C105.216 30.9152 105.454 29.7919 105.911 28.6475C106.368 27.503 107.024 26.4645 107.839 25.5532C108.594 24.7266 109.448 24.0908 110.382 23.6457C111.316 23.2007 112.27 22.9675 113.243 22.9675C114.276 22.9675 115.091 23.2219 115.707 23.7093C116.323 24.1968 116.621 24.8326 116.621 25.6591C116.621 26.1466 116.462 26.5705 116.144 26.9096C115.826 27.2487 115.449 27.4182 115.012 27.4182C114.654 27.4182 114.376 27.3123 114.137 27.0579C113.919 26.8248 113.8 26.5069 113.8 26.1042C113.8 25.8287 113.879 25.5108 114.058 25.1505C114.237 24.7902 114.316 24.5783 114.316 24.4723C114.316 24.3027 114.237 24.1756 114.038 24.0696C113.859 23.9636 113.621 23.9212 113.303 23.9212C112.667 23.9212 112.031 24.112 111.356 24.5359C110.7 24.9597 110.124 25.5108 109.627 26.2314C109.031 27.1003 108.554 28.0328 108.236 29.0078C107.918 29.9827 107.759 30.9364 107.759 31.8689C107.759 32.9286 108.018 33.7764 108.534 34.391C109.071 35.0056 109.766 35.4295 110.66 35.4295C111.356 35.4295 112.051 35.0904 112.746 34.6241C113.502 34.2002 114.634 33.2889 115.866 31.3179Z" fill="white"/>
<path d="M114.316 37.0402L118.985 19.5765C119.005 19.4706 119.025 19.3646 119.045 19.2374C119.065 19.1315 119.065 19.0255 119.065 18.9195C119.065 18.6016 118.985 18.3897 118.846 18.2837C118.707 18.1778 118.27 18.1142 117.595 18.1142H116.542L116.7 17.3088C117.555 17.2664 118.35 17.1605 119.105 17.0121C119.84 16.8425 120.555 16.6518 121.211 16.3763H122.045L118.826 28.4355C120.476 26.6977 122.006 25.3413 123.396 24.3663C124.787 23.4126 125.88 22.9252 126.715 22.9252C127.152 22.9252 127.47 23.0311 127.668 23.2431C127.867 23.455 127.986 23.7941 127.986 24.2392C127.986 24.3875 127.966 24.5359 127.927 24.7478C127.887 24.9598 127.847 25.1929 127.787 25.426L125.423 33.6492C125.383 33.7976 125.344 33.9883 125.304 34.1791C125.264 34.3698 125.264 34.5605 125.264 34.7301C125.264 34.8361 125.304 34.9208 125.403 35.0056C125.483 35.0904 125.582 35.2387 125.701 35.2387C125.94 35.2387 126.258 34.9844 126.655 34.6453C127.052 34.3274 127.489 33.8823 127.946 33.3101L128.423 33.734C127.609 34.7725 126.834 35.5778 126.079 36.1289C125.324 36.6799 124.628 36.9554 123.992 36.9554C123.575 36.9554 123.257 36.8495 123.019 36.6375C122.78 36.4256 122.661 36.1501 122.661 35.7898C122.661 35.6626 122.681 35.5143 122.701 35.3659C122.721 35.2176 122.78 35.0692 122.82 34.8785L125.244 26.3797C125.284 26.189 125.324 26.0618 125.324 25.9559C125.344 25.8711 125.344 25.7651 125.344 25.7015C125.344 25.4896 125.284 25.3201 125.165 25.1929C125.046 25.0869 124.887 25.0233 124.648 25.0233C124.31 25.0233 123.794 25.2353 123.118 25.7015C122.443 26.1466 121.668 26.7824 120.794 27.6302C119.999 28.372 119.423 28.9866 119.045 29.5164C118.668 30.0463 118.409 30.5761 118.25 31.1272L116.641 36.9978C116.462 36.9766 115.806 36.9554 115.628 36.9342C115.449 36.9131 115.707 36.9131 115.528 36.9131C115.329 36.9131 115.131 36.9131 114.952 36.9342C114.694 36.9978 114.495 37.019 114.316 37.0402Z" fill="white"/>
<path d="M86.5986 41.8516V42.0847C86.5986 42.2119 86.6184 42.3178 86.6383 42.4026C86.6979 42.6781 86.9165 42.8265 87.294 42.8265C87.4331 42.8265 87.5523 42.8053 87.6715 42.7629C87.9298 42.6781 88.049 42.4874 88.0689 42.1907C88.0689 41.9787 87.9894 41.8092 87.8106 41.7032C87.6914 41.6184 87.5523 41.5549 87.3933 41.4701L86.8966 41.2369C86.6979 41.1522 86.539 41.0674 86.4197 40.9614C86.1416 40.7707 86.0224 40.4952 86.0224 40.1349C86.0224 39.7322 86.1813 39.4567 86.4793 39.2871C86.6979 39.16 86.9959 39.0964 87.3933 39.0964C87.8702 39.0964 88.208 39.1812 88.4067 39.3719C88.5656 39.5203 88.665 39.817 88.665 40.2408V40.3256H87.9894V40.2196L87.9695 40.0077C87.9298 39.6898 87.7311 39.5414 87.3735 39.5414C86.9165 39.5414 86.6979 39.7322 86.6979 40.0925C86.6979 40.3256 86.837 40.5164 87.1152 40.6647C87.294 40.7495 87.4927 40.8555 87.7112 40.9402C87.9298 41.025 88.1086 41.131 88.2477 41.2158C88.5656 41.4277 88.7246 41.7244 88.7246 42.1271C88.7246 42.8689 88.2477 43.2504 87.294 43.2504C86.8966 43.2504 86.5787 43.1868 86.3601 43.0384C86.1018 42.8689 85.9627 42.6357 85.9429 42.3178V41.9999V41.8304L86.5986 41.8516Z" fill="white"/>
<path d="M89.8572 41.8088C89.8572 42.1479 89.8771 42.3811 89.9367 42.487C89.9764 42.593 90.0757 42.6778 90.195 42.7202C90.3142 42.7837 90.4533 42.8049 90.5923 42.8049C90.7116 42.8049 90.8308 42.7837 90.95 42.7202C91.1685 42.6354 91.2878 42.487 91.3076 42.2539C91.3275 42.1267 91.3275 41.9784 91.3275 41.7876V40.41C91.3275 40.1133 91.3076 39.9014 91.2282 39.7954C91.1288 39.6047 90.9102 39.4987 90.6122 39.4987C90.493 39.4987 90.3738 39.5199 90.2744 39.5623C90.0559 39.6471 89.9367 39.7954 89.9168 40.0285C89.8969 40.1345 89.8969 40.2617 89.8969 40.41V41.8088H89.8572ZM89.1816 40.4524C89.1816 40.1133 89.2214 39.8802 89.281 39.7106C89.3803 39.4563 89.5592 39.2868 89.8771 39.1808C90.0956 39.096 90.334 39.0748 90.5923 39.0748C90.8506 39.0748 91.0891 39.1172 91.3076 39.1808C91.6057 39.2868 91.8044 39.4563 91.9037 39.7106C91.9633 39.859 91.9832 40.1133 92.003 40.4524V41.83C92.003 42.0843 91.9832 42.2963 91.9633 42.4658C91.8838 42.9957 91.4467 43.2712 90.6321 43.2712C90.036 43.2712 89.6386 43.144 89.4399 42.8897C89.281 42.699 89.2015 42.3387 89.2214 41.8088V40.4524H89.1816Z" fill="white"/>
<path d="M92.5793 39.1385H93.2549V41.8514V42.2116C93.2748 42.6143 93.4933 42.8051 93.9304 42.8051C94.3477 42.8051 94.5861 42.6143 94.6259 42.254C94.6457 42.1269 94.6457 41.9997 94.6457 41.8514V39.1385H95.3213V41.8937C95.3213 42.1269 95.3213 42.2964 95.3014 42.4236C95.2815 42.6143 95.2021 42.7627 95.0828 42.8899C94.8444 43.1442 94.4669 43.2501 93.9503 43.2501C93.4337 43.2501 93.0562 43.123 92.8178 42.8899C92.6986 42.7415 92.6191 42.5931 92.5992 42.4024C92.5793 42.2964 92.5793 42.1269 92.5793 41.8725V39.1385Z" fill="white"/>
<path d="M96.6126 39.6048V40.9188H97.0894C97.2285 40.9188 97.3477 40.9188 97.4669 40.8976C97.6656 40.8552 97.8047 40.7705 97.8842 40.6433C97.9438 40.5585 97.9637 40.4102 97.9637 40.1982C97.9637 39.9651 97.8842 39.8168 97.7451 39.732C97.6458 39.6684 97.4272 39.626 97.1292 39.626L96.6126 39.6048ZM97.0497 39.1385H97.4471C97.606 39.1385 97.7451 39.1597 97.8643 39.1809C98.361 39.2657 98.5995 39.5836 98.6193 40.1559C98.6193 40.4526 98.5597 40.6857 98.4206 40.8341C98.3014 40.9824 98.0431 41.0884 97.6855 41.1308C97.904 41.152 98.0829 41.1943 98.1822 41.2367C98.3213 41.3003 98.4206 41.4275 98.4604 41.597C98.4802 41.703 98.5001 41.8302 98.5001 41.9785L98.52 42.466C98.5399 42.6567 98.5597 42.7839 98.5796 42.8898C98.5995 42.9746 98.6193 43.0806 98.6789 43.2078H97.9835L97.9239 42.9534C97.904 42.8898 97.8842 42.7839 97.8842 42.6779L97.8643 42.3176L97.8444 41.9361C97.8047 41.6394 97.6855 41.4699 97.4272 41.4063C97.3278 41.3851 97.2086 41.3639 97.0695 41.3639H96.6126V43.2078H95.937V39.1385H97.0497Z" fill="white"/>
<path d="M101.143 40.2196V40.0289C101.123 39.711 100.944 39.5414 100.587 39.5414C100.269 39.5414 100.05 39.6262 99.9706 39.7958C99.911 39.8805 99.8911 39.9653 99.8911 40.0501V40.3892V41.9999C99.8911 42.2966 99.9309 42.4874 99.9706 42.5722C100.09 42.7417 100.269 42.8265 100.547 42.8265C100.904 42.8265 101.103 42.6569 101.143 42.2966L101.163 42.0423V41.894H101.838V42.0423V42.2966C101.818 42.5933 101.719 42.8265 101.54 42.996C101.421 43.102 101.302 43.1656 101.143 43.208C100.964 43.2504 100.765 43.2927 100.567 43.2927C100.388 43.2927 100.209 43.2715 100.05 43.2504C99.4937 43.1444 99.2156 42.7629 99.2156 42.1059V40.474C99.2156 40.3044 99.2156 40.1349 99.2553 39.9865C99.2752 39.7958 99.3348 39.6474 99.4341 39.5202C99.6527 39.2447 100.03 39.0964 100.587 39.0964C101.361 39.0964 101.779 39.3507 101.838 39.8594C101.858 39.9653 101.858 40.0713 101.858 40.1773V40.3256H101.183V40.2196H101.143Z" fill="white"/>
<path d="M102.395 39.1384H104.6V39.6047H103.07V40.8975H104.501V41.3426H103.07V42.7626H104.64V43.2076H102.395V39.1384Z" fill="white"/>
<path d="M107.044 41.8087C107.044 42.1478 107.064 42.3809 107.124 42.4869C107.163 42.5929 107.263 42.6776 107.382 42.72C107.501 42.7836 107.64 42.8048 107.779 42.8048C107.899 42.8048 108.018 42.7836 108.137 42.72C108.356 42.6353 108.455 42.4869 108.495 42.2538C108.515 42.1266 108.515 41.9783 108.515 41.7875V40.4099C108.515 40.1132 108.495 39.9013 108.415 39.7953C108.316 39.6046 108.097 39.4986 107.799 39.4986C107.68 39.4986 107.561 39.5198 107.461 39.5622C107.243 39.6469 107.124 39.7953 107.104 40.0284C107.084 40.1344 107.084 40.2616 107.084 40.4099V41.8087H107.044ZM106.369 40.4523C106.369 40.1132 106.408 39.8801 106.448 39.7105C106.528 39.4562 106.726 39.2866 107.044 39.1807C107.263 39.0959 107.501 39.0747 107.759 39.0747C108.018 39.0747 108.256 39.1171 108.475 39.1807C108.773 39.2866 108.972 39.4562 109.071 39.7105C109.13 39.8589 109.15 40.1132 109.17 40.4523V41.8299C109.17 42.0842 109.15 42.2962 109.13 42.4657C109.051 42.9956 108.614 43.2711 107.799 43.2711C107.203 43.2711 106.806 43.1439 106.607 42.8896C106.448 42.6988 106.389 42.3385 106.389 41.8087L106.369 40.4523Z" fill="white"/>
<path d="M111.912 39.1384V39.6047H110.441V40.8763H111.852V41.3426H110.441V43.2076H109.766V39.1384H111.912Z" fill="white"/>
<path d="M114.137 41.8514V42.0846C114.137 42.2117 114.137 42.3177 114.177 42.4025C114.237 42.678 114.455 42.8264 114.833 42.8264C114.972 42.8264 115.091 42.8052 115.21 42.7628C115.469 42.678 115.588 42.4873 115.608 42.1905C115.608 41.9786 115.528 41.8091 115.349 41.7031C115.23 41.6183 115.091 41.5547 114.932 41.47L114.435 41.2368C114.237 41.152 114.078 41.0673 113.958 40.9613C113.7 40.7706 113.561 40.495 113.561 40.1347C113.561 39.7321 113.72 39.4565 114.018 39.287C114.237 39.1598 114.535 39.0963 114.932 39.0963C115.409 39.0963 115.747 39.181 115.945 39.3718C116.104 39.5201 116.184 39.8168 116.184 40.2407V40.3255H115.508V40.2195L115.488 40.0076C115.449 39.6897 115.25 39.5413 114.892 39.5413C114.435 39.5413 114.217 39.7321 114.217 40.0924C114.217 40.3255 114.356 40.5162 114.634 40.6646C114.813 40.7494 115.012 40.8553 115.23 40.9401C115.449 41.0249 115.628 41.1309 115.767 41.2156C116.084 41.4276 116.243 41.7243 116.243 42.127C116.243 42.8687 115.767 43.2502 114.813 43.2502C114.396 43.2502 114.098 43.1866 113.879 43.0383C113.621 42.8687 113.482 42.6356 113.462 42.3177L113.442 41.9998V41.8302L114.137 41.8514Z" fill="white"/>
<path d="M116.74 39.1385H117.416V41.8513V42.2116C117.436 42.6143 117.674 42.805 118.091 42.805C118.509 42.805 118.747 42.6143 118.787 42.254C118.807 42.1268 118.807 41.9997 118.807 41.8513V39.1385H119.482V41.8937C119.482 42.1268 119.462 42.2964 119.462 42.4235C119.442 42.6143 119.363 42.7626 119.244 42.8898C119.005 43.1441 118.628 43.2501 118.111 43.2501C117.595 43.2501 117.217 43.1229 116.979 42.8898C116.859 42.7414 116.78 42.5931 116.76 42.4023C116.74 42.2964 116.74 42.1268 116.74 41.8725V39.1385Z" fill="white"/>
<path d="M122.085 40.2196V40.0288C122.065 39.7109 121.886 39.5414 121.509 39.5414C121.191 39.5414 120.992 39.6262 120.893 39.7957C120.833 39.8805 120.813 39.9653 120.813 40.05V40.3891V41.9999C120.813 42.2966 120.853 42.4873 120.893 42.5721C120.992 42.7416 121.191 42.8264 121.469 42.8264C121.827 42.8264 122.025 42.6569 122.065 42.2966L122.085 42.0422V41.8939H122.761V42.0422V42.2966C122.741 42.5933 122.641 42.8264 122.463 42.996C122.343 43.1019 122.224 43.1655 122.065 43.2079C121.886 43.2503 121.688 43.2927 121.489 43.2927C121.31 43.2927 121.131 43.2715 120.972 43.2503C120.416 43.1443 120.138 42.7628 120.138 42.1058V40.4739C120.138 40.3044 120.138 40.1348 120.178 39.9865C120.198 39.7957 120.257 39.6474 120.356 39.5202C120.575 39.2447 120.953 39.0963 121.509 39.0963C122.284 39.0963 122.701 39.3506 122.761 39.8593C122.781 39.9653 122.781 40.0712 122.781 40.1772V40.3256H122.105L122.085 40.2196Z" fill="white"/>
<path d="M125.304 40.2196V40.0288C125.284 39.7109 125.105 39.5414 124.747 39.5414C124.43 39.5414 124.231 39.6262 124.131 39.7957C124.072 39.8805 124.052 39.9653 124.052 40.05V40.3891V41.9999C124.052 42.2966 124.092 42.4873 124.131 42.5721C124.251 42.7416 124.43 42.8264 124.708 42.8264C125.065 42.8264 125.264 42.6569 125.304 42.2966L125.324 42.0422V41.8939H125.999V42.0422V42.2966C125.979 42.5933 125.88 42.8264 125.701 42.996C125.582 43.1019 125.463 43.1655 125.304 43.2079C125.125 43.2503 124.926 43.2927 124.728 43.2927C124.549 43.2927 124.37 43.2715 124.211 43.2503C123.655 43.1443 123.376 42.7628 123.376 42.1058V40.4739C123.376 40.3044 123.376 40.1348 123.416 39.9865C123.436 39.7957 123.496 39.6474 123.595 39.5202C123.814 39.2447 124.191 39.0963 124.747 39.0963C125.522 39.0963 125.94 39.3506 125.999 39.8593C126.019 39.9653 126.019 40.0712 126.019 40.1772V40.3256H125.344V40.2196H125.304Z" fill="white"/>
<path d="M126.555 39.1384H128.761V39.6047H127.231V40.8975H128.662V41.3426H127.231V42.7626H128.801V43.2076H126.555V39.1384Z" fill="white"/>
<path d="M129.774 41.8514V42.0846C129.774 42.2117 129.794 42.3177 129.814 42.4025C129.874 42.678 130.092 42.8264 130.47 42.8264C130.609 42.8264 130.728 42.8052 130.847 42.7628C131.106 42.678 131.225 42.4873 131.245 42.1905C131.245 41.9786 131.165 41.8091 130.986 41.7031C130.867 41.6183 130.728 41.5547 130.569 41.47L130.092 41.2368C129.894 41.152 129.735 41.0673 129.615 40.9613C129.357 40.7706 129.218 40.495 129.218 40.1347C129.218 39.7321 129.377 39.4565 129.675 39.287C129.894 39.1598 130.192 39.0963 130.589 39.0963C131.066 39.0963 131.404 39.181 131.602 39.3718C131.761 39.5201 131.841 39.8168 131.841 40.2407V40.3255H131.165V40.2195L131.145 40.0076C131.106 39.6897 130.907 39.5413 130.549 39.5413C130.092 39.5413 129.874 39.7321 129.874 40.0924C129.874 40.3255 130.013 40.5162 130.291 40.6646C130.47 40.7494 130.669 40.8553 130.887 40.9401C131.106 41.0249 131.284 41.1309 131.424 41.2156C131.741 41.4276 131.9 41.7243 131.9 42.127C131.9 42.8687 131.424 43.2502 130.47 43.2502C130.053 43.2502 129.755 43.1866 129.536 43.0383C129.278 42.8687 129.139 42.6356 129.119 42.3177L129.099 41.9998V41.8302L129.774 41.8514Z" fill="white"/>
<path d="M132.894 41.8515V42.0846C132.894 42.2118 132.914 42.3178 132.933 42.4025C132.993 42.6781 133.212 42.8264 133.589 42.8264C133.728 42.8264 133.847 42.8052 133.967 42.7628C134.225 42.6781 134.344 42.4873 134.364 42.1906C134.364 41.9787 134.285 41.8091 134.106 41.7031C133.986 41.6184 133.847 41.5548 133.688 41.47L133.212 41.2369C133.013 41.1521 132.854 41.0673 132.735 40.9614C132.457 40.7706 132.337 40.4951 132.337 40.1348C132.337 39.7321 132.496 39.4566 132.794 39.2871C133.013 39.1599 133.311 39.0963 133.708 39.0963C134.185 39.0963 134.523 39.1811 134.722 39.3718C134.881 39.5202 134.98 39.8169 134.98 40.2408V40.3256H134.265V40.2196L134.245 40.0076C134.205 39.6897 134.006 39.5414 133.649 39.5414C133.192 39.5414 132.973 39.7321 132.973 40.0924C132.973 40.3256 133.112 40.5163 133.39 40.6647C133.569 40.7494 133.768 40.8554 133.986 40.9402C134.205 41.0249 134.384 41.1309 134.523 41.2157C134.841 41.4276 135 41.7243 135 42.127C135 42.8688 134.523 43.2503 133.569 43.2503C133.172 43.2503 132.854 43.1867 132.635 43.0384C132.377 42.8688 132.238 42.6357 132.218 42.3178L132.198 41.9999V41.8303L132.894 41.8515Z" fill="white"/>
</svg>
